<?xml version="1.0" encoding="utf-8"?>
<!-- Generator: Adobe Illustrator 28.1.0, SVG Export Plug-In . SVG Version: 6.00 Build 0)  -->
<svg version="1.1" id="Camada_1" xmlns="http://www.w3.org/2000/svg" xmlns:xlink="http://www.w3.org/1999/xlink" x="0px" y="0px"
	 viewBox="0 0 224 224" style="enable-background:new 0 0 224 224;" xml:space="preserve">
<g transform="translate(0.000000,1280.000000) scale(0.100000,-0.100000)">
	<path d="M1161,12468.7c-1.8-0.3-104.3-10.7-227.9-23.1c-123.4-12.5-227.5-23.4-231.2-24c-52.3-10.9-96.9-73.4-104.3-146.6
		c-1.6-15.4-64.3-1225-66.6-1280.9c-1.6-43.4,7.2-77.5,26.9-103.9c7.7-10.3,23.4-23,34.1-27.5c9.8-4.1,214.1-46,229.7-47.2
		c26.6-1.9,58,13.8,80.2,39.8c22.6,26.6,39,65.1,43.4,102c1,8.1,6.2,100.9,11.6,206c5.2,105.2,9.8,191.4,10.2,191.5
		c0.5,0.4,87.1,9.4,87.4,9c0.2,0,48-88.5,106.4-196.6c63.9-118.7,108.9-200.1,113.3-205.6c9-11.5,22.8-22.4,33.9-26.8
		c8.7-3.5,212.8-45.6,227.4-47c15.7-1.4,37,4.7,53.8,15.5c27,17.6,50.7,50.8,62.6,88.3c13.8,43.2,13,94.2-2.1,129.1
		c-2.1,5-43.6,82.5-92.1,172.3l-88.2,163.2l18.9,15.1c80.3,64.8,147.1,167.8,184.9,285.3c23,71.3,33.8,134.5,35.6,210.7
		c2.5,98.4-14.4,185.5-51.1,265c-41.8,90.3-110.8,156.9-189.7,182.9c-10.5,3.4-50.7,12.1-126.7,27.5
		c-61.3,12.4-115.6,23.3-120.5,24.2C1211.8,12468.5,1167.2,12469.9,1161,12468.7z M1258.7,12111.5c49.3-77.4,44.4-202.1-11.5-292.8
		c-27.9-45.1-67.7-79-106.4-90.2c-12.3-3.6-25.4-5.2-113.1-14c-22.8-2.2-41.6-3.9-42-3.6c-1,0.9,19.2,387,20.3,388
		c1.1,1,234.6,25.3,240.8,25.1C1250.1,12123.8,1252.3,12121.7,1258.7,12111.5z"/>
</g>
</svg>
