<?xml version="1.0" ?>
<svg xmlns="http://www.w3.org/2000/svg" version="1.1" width="224" height="224">
  <defs/>
  <g>
    <path d="M 222.2959747314453 123.05856323242188 C 173.33387756347656 67.59542083740234 151.32797241210938 56.305030822753906 206.4430694580078 67.41414642333984 C 260.7673034667969 84.79571533203125 250.43865966796875 50.81949996948242 247.142822265625 36.079010009765625 C 222.7964324951172 39.331478118896484 225.0958251953125 32.704280853271484 233.46524047851562 29.568910598754883 C 236.83065795898438 27.387287139892578 240.34503173828125 28.736061096191406 226.3955841064453 40.234642028808594 C 240.72071838378906 36.8928108215332 249.86395263671875 72.40071868896484 222.2959747314453 123.05856323242188" stroke-width="2.0" fill="rgb(160, 201, -21)" opacity="0.2908115"/>
    <path d="M 5.396779537200928 -13.485311508178711 C 83.78288269042969 21.807844161987305 33.97443771362305 -13.435257911682129 -0.23613010346889496 27.02056312561035 C -16.552310943603516 51.057594299316406 -21.979562759399414 26.13453483581543 -18.253223419189453 14.71986198425293 C -15.744404792785645 37.84474563598633 -26.3107852935791 16.164827346801758 5.396779537200928 -13.485311508178711" stroke-width="2.0" fill="rgb(58, 69, 55)" opacity="1.2171823"/>
    <path d="M 153.8378143310547 190.2882843017578 C 151.05349731445312 178.50563049316406 156.59852600097656 180.23011779785156 135.98008728027344 198.60789489746094 C 142.9645233154297 148.28790283203125 135.47952270507812 200.8919677734375 152.02146911621094 198.7938690185547 C 129.39683532714844 192.42213439941406 129.34048461914062 182.55960083007812 141.6502685546875 180.7635040283203 C 134.85671997070312 155.0076904296875 178.76670837402344 170.34181213378906 153.8378143310547 190.2882843017578" stroke-width="2.0" fill="rgb(-1, 2, 18)" opacity="0.8636064"/>
    <path d="M 142.86358642578125 217.44534301757812 C 116.67613220214844 202.90647888183594 158.9097900390625 224.4109344482422 109.23247528076172 188.9076690673828 C 96.2256088256836 222.0312957763672 42.718963623046875 225.9318389892578 177.93911743164062 233.3497314453125 C 151.19754028320312 192.94699096679688 139.78631591796875 199.55715942382812 142.86358642578125 217.44534301757812" stroke-width="2.0" fill="rgb(20, 77, 78)" opacity="0.6628211"/>
    <path d="M 25.008487701416016 106.99052429199219 C 13.893204689025879 101.91171264648438 3.045844316482544 73.04075622558594 21.248674392700195 117.72410583496094 C -20.4865665435791 94.35596466064453 -27.24308967590332 77.7621078491211 0.2700742185115814 71.65078735351562 C 42.707733154296875 105.83631134033203 43.935001373291016 55.412200927734375 25.008487701416016 106.99052429199219" stroke-width="2.0" fill="rgb(27, 6, -33)" opacity="0.7618862"/>
    <path d="M 65.04674530029297 -4.350345134735107 C 70.9198226928711 -25.42983627319336 29.67441749572754 -8.690417289733887 67.82908630371094 13.002238273620605 C 71.99345397949219 -12.799567222595215 117.0379867553711 4.7353901863098145 87.00963592529297 -8.844799041748047 C 37.564605712890625 -19.79250717163086 24.289411544799805 -3.4974892139434814 43.69805908203125 -1.569977045059204 C 26.64820671081543 -25.349151611328125 57.11228561401367 -0.4309201240539551 65.04674530029297 -4.350345134735107" stroke-width="2.0" fill="rgb(31, 137, 11)" opacity="0.31761214"/>
    <path d="M 86.5152816772461 129.0731658935547 C 73.86331939697266 148.3223419189453 66.21925354003906 143.12353515625 59.203609466552734 150.0155029296875 C 62.390419006347656 132.55523681640625 60.90961456298828 144.5092315673828 95.24459838867188 145.74484252929688 C 73.37928771972656 142.13601684570312 44.31966018676758 137.00949096679688 58.74932098388672 147.49598693847656 C 69.96074676513672 135.54727172851562 103.90548706054688 139.1137237548828 88.53981018066406 127.54402923583984 C 33.699974060058594 150.11990356445312 38.51451873779297 151.37652587890625 86.5152816772461 129.0731658935547" stroke-width="2.0" fill="rgb(113, 62, -20)" opacity="0.26650885"/>
    <path d="M 191.43707275390625 42.54873275756836 C 178.3743133544922 70.88841247558594 195.52462768554688 66.35643005371094 218.00997924804688 71.75305938720703 C 252.4744110107422 18.859590530395508 220.1002655029297 35.074729919433594 192.64060974121094 38.216487884521484 C 205.70066833496094 37.371524810791016 207.5501251220703 38.37556838989258 209.2275848388672 31.41617202758789 C 202.3599395751953 36.34858703613281 202.5760040283203 54.344444274902344 203.33999633789062 46.22378158569336 C 193.3421173095703 29.675155639648438 202.91070556640625 17.067026138305664 191.43707275390625 42.54873275756836" stroke-width="2.0" fill="rgb(210, 246, 214)" opacity="0.038724788"/>
    <path d="M 88.53600311279297 93.44380187988281 C 102.10285186767578 66.67029571533203 91.8744125366211 97.51344299316406 83.09207153320312 104.19442749023438 C 47.679893493652344 107.795166015625 -15.497319221496582 100.93974304199219 7.422990798950195 90.7099609375 C 88.24363708496094 100.5036392211914 101.72724151611328 114.14775848388672 89.88401794433594 101.1748046875 C 47.625823974609375 83.97235870361328 40.465858459472656 84.1183853149414 88.53600311279297 93.44380187988281" stroke-width="2.0" fill="rgb(105, 81, 65)" opacity="0.5714069"/>
    <path d="M 119.60095977783203 76.36705017089844 C 143.45848083496094 127.64366912841797 134.50408935546875 129.5577850341797 176.32144165039062 94.27000427246094 C 178.8849639892578 112.0586166381836 196.3011016845703 128.0064239501953 171.71080017089844 119.71395111083984 C 150.80435180664062 76.69174194335938 156.62966918945312 104.33092498779297 134.7521209716797 105.40711212158203 C 155.5807647705078 72.8984146118164 179.51780700683594 85.1700439453125 157.36839294433594 106.62787628173828 C 162.50845336914062 132.9902801513672 140.6059112548828 100.90354919433594 119.60095977783203 76.36705017089844" stroke-width="2.0" fill="rgb(252, 106, 30)" opacity="0.1864633"/>
    <path d="M 42.66108703613281 132.38821411132812 C 0.016076408326625824 107.88953399658203 -10.131867408752441 116.73311614990234 40.03289794921875 104.25311279296875 C 22.349336624145508 107.85005187988281 -0.28882941603660583 129.64292907714844 -22.99942970275879 102.92854309082031 C -5.3764848709106445 112.04418182373047 -8.214192390441895 103.72587585449219 -14.548117637634277 119.17984771728516 C 26.253511428833008 152.8169403076172 32.510719299316406 147.8339385986328 42.66108703613281 132.38821411132812" stroke-width="2.0" fill="rgb(-56, 81, 128)" opacity="-0.110032596"/>
    <path d="M 111.96910858154297 222.57672119140625 C 95.30948638916016 173.11878967285156 116.27597045898438 184.70877075195312 119.61483001708984 227.64053344726562 C 114.35430908203125 223.14370727539062 158.69837951660156 198.95777893066406 154.9412841796875 193.11241149902344 C 177.64639282226562 231.57180786132812 196.8750457763672 204.05067443847656 155.21925354003906 195.43836975097656 C 181.18905639648438 184.23257446289062 191.63491821289062 224.94679260253906 111.96910858154297 222.57672119140625" stroke-width="2.0" fill="rgb(29, 101, -26)" opacity="0.52000046"/>
    <path d="M 80.09549713134766 191.21546936035156 C 111.0271224975586 166.48953247070312 90.73515319824219 173.2333984375 53.243141174316406 159.82972717285156 C 53.09894561767578 213.41456604003906 90.51884460449219 235.345703125 84.32279205322266 193.09820556640625 C 87.97433471679688 165.51058959960938 64.5676498413086 173.99818420410156 65.78583526611328 172.2442169189453 C 61.992210388183594 179.50363159179688 52.84328842163086 189.25619506835938 54.864070892333984 155.09556579589844 C 41.68273162841797 154.3307342529297 46.708282470703125 153.7515106201172 80.09549713134766 191.21546936035156" stroke-width="2.0" fill="rgb(205, 136, 68)" opacity="0.45501876"/>
    <path d="M 62.435035705566406 -1.328821063041687 C 126.52908325195312 -21.958677291870117 115.24472045898438 36.82332992553711 79.76580047607422 8.054000854492188 C 104.58187866210938 -23.353107452392578 127.49482727050781 -14.345495223999023 125.47837829589844 -21.206497192382812 C 89.96427917480469 -35.63075256347656 77.91764068603516 61.151031494140625 62.435035705566406 -1.328821063041687" stroke-width="2.0" fill="rgb(269, 349, 53)" opacity="0.080528565"/>
    <path d="M 70.88774871826172 86.82966613769531 C 130.839111328125 118.5743637084961 149.5102081298828 121.51103210449219 131.96490478515625 135.08016967773438 C 136.76332092285156 168.37916564941406 111.06498718261719 148.8109893798828 132.65365600585938 125.0863037109375 C 109.30973815917969 134.1928253173828 126.55769348144531 156.2294921875 106.9338150024414 180.40771484375 C 110.95836639404297 112.85574340820312 99.01634979248047 123.46760559082031 70.88774871826172 86.82966613769531" stroke-width="2.0" fill="rgb(124, 104, 1)" opacity="0.6066494"/>
    <path d="M 105.1795883178711 187.45225524902344 C 85.18557739257812 203.71499633789062 48.8655891418457 190.2752685546875 125.4892807006836 205.99464416503906 C 89.4364013671875 189.56263732910156 113.61991119384766 178.3111572265625 57.55790328979492 168.6665802001953 C 76.89476776123047 179.24789428710938 103.38916778564453 191.36172485351562 105.1795883178711 187.45225524902344" stroke-width="2.0" fill="rgb(38, 55, -26)" opacity="0.74582523"/>
    <path d="M 11.476024627685547 -13.71677303314209 C 67.8138656616211 7.710575580596924 69.5669174194336 7.780972480773926 35.77285385131836 -0.6336253881454468 C 33.792301177978516 -5.032877445220947 30.165973663330078 -13.419296264648438 60.4899787902832 7.388645648956299 C 68.90572357177734 6.2445526123046875 72.40364074707031 -26.996557235717773 58.84946060180664 56.956764221191406 C 134.13323974609375 20.105514526367188 79.13473510742188 -44.81108093261719 11.476024627685547 -13.71677303314209" stroke-width="2.0" fill="rgb(111, 111, 141)" opacity="0.13039999"/>
    <path d="M 200.81549072265625 76.42537689208984 C 183.48374938964844 70.4743881225586 184.67803955078125 77.2038345336914 191.8128204345703 68.90995788574219 C 197.09701538085938 79.03199005126953 204.66241455078125 85.97757720947266 152.7874298095703 70.05790710449219 C 194.6887969970703 61.37194061279297 187.31231689453125 59.96745300292969 200.81549072265625 76.42537689208984" stroke-width="2.0" fill="rgb(241, 334, 31)" opacity="0.22914375"/>
    <path d="M 163.1330108642578 37.17726516723633 C 188.6817626953125 78.22087860107422 198.79318237304688 88.87076568603516 186.63180541992188 43.764408111572266 C 161.82708740234375 31.42158317565918 158.42149353027344 35.260765075683594 176.01123046875 71.56570434570312 C 132.03717041015625 71.75344848632812 164.9410858154297 46.8914909362793 153.2359161376953 44.52494430541992 C 162.2642364501953 23.459148406982422 169.40333557128906 31.42923355102539 163.1330108642578 37.17726516723633" stroke-width="2.0" fill="rgb(157, 205, 127)" opacity="0.04059923"/>
    <path d="M 126.44351959228516 -3.51885724067688 C 119.85389709472656 -3.3137941360473633 115.63207244873047 -2.479982852935791 119.80884552001953 -4.250742435455322 C 121.48033905029297 1.5783579349517822 127.39508819580078 0.5509724020957947 120.9319839477539 -4.637004375457764 C 115.90394592285156 -11.945608139038086 113.14606475830078 -13.134404182434082 110.10418701171875 -7.848365783691406 C 117.84082794189453 -2.5527939796447754 121.33828735351562 -4.274374485015869 116.97554016113281 -7.524639129638672 C 124.84628295898438 -11.75280475616455 123.61434936523438 -16.232418060302734 126.44351959228516 -3.51885724067688" stroke-width="2.0" fill="rgb(132, 150, 185)" opacity="0.19699515"/>
    <path d="M 17.428003311157227 192.46054077148438 C 15.268624305725098 204.8998565673828 55.72264862060547 222.0334930419922 44.96589660644531 194.748779296875 C 17.385967254638672 174.85165405273438 -18.683486938476562 178.78843688964844 0.16919580101966858 209.76986694335938 C 13.498126983642578 220.85780334472656 6.371079921722412 203.66983032226562 17.428003311157227 192.46054077148438" stroke-width="2.0" fill="rgb(80, 94, -30)" opacity="0.5791066"/>
    <path d="M 69.7751235961914 200.91171264648438 C 86.22321319580078 186.73721313476562 46.767696380615234 182.31976318359375 66.86763763427734 179.6217498779297 C 78.42391967773438 209.25730895996094 69.93183898925781 146.42649841308594 43.38270950317383 214.20948791503906 C 85.07768249511719 214.13796997070312 76.1378402709961 197.1371307373047 52.45417022705078 202.57647705078125 C 54.98674774169922 202.59056091308594 48.02104187011719 195.61903381347656 71.42266082763672 177.24835205078125 C 46.785892486572266 211.31080627441406 70.35417175292969 174.53199768066406 69.7751235961914 200.91171264648438" stroke-width="2.0" fill="rgb(98, 63, 37)" opacity="0.5610736"/>
    <path d="M 118.5297622680664 66.07046508789062 C 60.54456329345703 116.6805648803711 36.63642501831055 98.83988189697266 58.715240478515625 107.95537567138672 C -0.39425748586654663 94.43949127197266 -7.874911785125732 45.186927795410156 64.31681823730469 110.92015838623047 C 87.38395690917969 116.4388656616211 56.620452880859375 125.54843139648438 12.208163261413574 109.5524673461914 C 18.246871948242188 97.12687683105469 73.17359161376953 128.4553680419922 115.5321044921875 93.43843841552734 C 87.65904998779297 34.70061111450195 61.517181396484375 35.57029342651367 118.5297622680664 66.07046508789062" stroke-width="2.0" fill="rgb(42, -13, -54)" opacity="0.3831957"/>
    <path d="M 266.9112854003906 73.43026733398438 C 208.84532165527344 68.39006042480469 200.28109741210938 71.22808837890625 186.28582763671875 144.0548095703125 C 228.65005493164062 132.1490020751953 285.2037353515625 124.42042541503906 262.1289978027344 126.78092193603516 C 233.06764221191406 70.10057830810547 226.35568237304688 68.14515686035156 224.70379638671875 58.97904586791992 C 231.03720092773438 65.89484405517578 233.791748046875 70.60010528564453 266.9112854003906 73.43026733398438" stroke-width="2.0" fill="rgb(193, 216, 38)" opacity="0.35626706"/>
    <path d="M -8.838377952575684 134.33322143554688 C 35.934547424316406 150.66091918945312 48.167747497558594 162.87088012695312 50.26285171508789 171.39352416992188 C 45.12696838378906 133.80604553222656 17.14957618713379 128.59786987304688 -6.015470027923584 103.58191680908203 C 26.653297424316406 85.22348022460938 35.726863861083984 117.68449401855469 70.3289566040039 116.45138549804688 C 31.397705078125 116.8706283569336 31.80370330810547 122.94537353515625 -8.838377952575684 134.33322143554688" stroke-width="2.0" fill="rgb(164, 122, 110)" opacity="0.3456859"/>
    <path d="M -12.333573341369629 177.00216674804688 C 32.00621032714844 183.5587921142578 40.44978713989258 195.97877502441406 -15.577127456665039 206.2467498779297 C -2.9021031856536865 243.0481719970703 -6.986751079559326 225.49990844726562 30.70490074157715 227.35939025878906 C 21.18478775024414 236.7765655517578 48.422767639160156 239.54539489746094 43.86431121826172 216.19097900390625 C -4.520548343658447 207.75941467285156 -15.692730903625488 200.373046875 18.31643295288086 179.61538696289062 C 21.345306396484375 268.0174560546875 5.7270588874816895 194.36012268066406 -12.333573341369629 177.00216674804688" stroke-width="2.0" fill="rgb(-39, -22, -41)" opacity="0.35565418"/>
    <path d="M 89.01956176757812 34.23878860473633 C 138.4821014404297 23.855745315551758 130.42630004882812 27.72116470336914 128.21266174316406 6.613471984863281 C 106.13861083984375 16.549245834350586 91.59210968017578 5.649702548980713 91.5558853149414 26.04939079284668 C 96.81358337402344 -13.460027694702148 92.6291732788086 -10.708943367004395 89.01956176757812 34.23878860473633" stroke-width="2.0" fill="rgb(208, 199, 237)" opacity="0.057352122"/>
    <path d="M 248.0008544921875 127.14737701416016 C 221.28024291992188 119.78472900390625 220.50132751464844 112.12154388427734 236.825927734375 119.66621398925781 C 241.87721252441406 131.99490356445312 239.0658416748047 145.2443084716797 226.95692443847656 198.84400939941406 C 214.75143432617188 172.2134552001953 204.7598876953125 131.89981079101562 180.17141723632812 138.76588439941406 C 241.5136260986328 176.45529174804688 232.92481994628906 166.50027465820312 193.29344177246094 120.31246185302734 C 168.41856384277344 93.03707885742188 231.9989471435547 91.74165344238281 248.0008544921875 127.14737701416016" stroke-width="2.0" fill="rgb(146, 190, 49)" opacity="0.40603614"/>
    <path d="M 49.32892990112305 137.5700225830078 C 43.8769416809082 157.619140625 62.87228775024414 176.15029907226562 44.24514389038086 131.07887268066406 C 59.35901641845703 103.84288024902344 84.67032623291016 91.3685302734375 119.27339172363281 132.10183715820312 C 48.282936096191406 132.87252807617188 45.85028076171875 111.24008178710938 41.31598663330078 147.40997314453125 C 17.1552734375 154.99273681640625 32.71854019165039 141.4341583251953 68.96428680419922 139.8858642578125 C 46.676849365234375 179.52703857421875 55.74742126464844 172.0175018310547 49.32892990112305 137.5700225830078" stroke-width="2.0" fill="rgb(138, 102, 159)" opacity="0.21773957"/>
    <path d="M 167.54055786132812 186.6547393798828 C 160.0417938232422 244.0876007080078 148.16957092285156 236.275146484375 182.83840942382812 230.12522888183594 C 192.09939575195312 229.07244873046875 178.27879333496094 229.5594482421875 171.9532012939453 231.29405212402344 C 169.242431640625 236.76608276367188 195.6264190673828 194.2108917236328 168.95460510253906 169.33995056152344 C 230.35629272460938 178.8681640625 240.5071563720703 187.5946807861328 167.54055786132812 186.6547393798828" stroke-width="2.0" fill="rgb(69, 54, 31)" opacity="0.5108153"/>
    <path d="M 201.32691955566406 220.16651916503906 C 207.45443725585938 205.76058959960938 206.54576110839844 188.24432373046875 185.8924102783203 196.999755859375 C 221.59698486328125 223.45645141601562 182.95851135253906 216.7164764404297 174.5513458251953 196.84873962402344 C 180.9008331298828 231.00152587890625 184.0156707763672 226.15245056152344 201.32691955566406 220.16651916503906" stroke-width="2.0" fill="rgb(195, 284, 36)" opacity="0.5685918"/>
    <path d="M 128.688232421875 216.3275604248047 C 112.42784118652344 201.7587890625 158.90623474121094 202.38531494140625 149.1846923828125 183.1366729736328 C 146.11331176757812 211.28855895996094 138.173095703125 182.48280334472656 118.22705078125 168.78060913085938 C 106.90315246582031 188.23382568359375 125.00619506835938 165.00265502929688 142.07289123535156 209.98126220703125 C 153.40957641601562 166.28150939941406 127.80680084228516 177.41275024414062 128.688232421875 216.3275604248047" stroke-width="2.0" fill="rgb(41, 86, -34)" opacity="0.70489"/>
    <path d="M 191.58494567871094 157.7266082763672 C 202.99539184570312 130.96713256835938 192.10693359375 125.94508361816406 169.2259063720703 136.0735626220703 C 234.88124084472656 153.49307250976562 209.32180786132812 204.17181396484375 163.13169860839844 152.8629608154297 C 168.84408569335938 188.3566131591797 221.10870361328125 164.78733825683594 120.63609313964844 176.01402282714844 C 163.2326202392578 133.7898406982422 138.9761505126953 136.296142578125 132.72097778320312 158.1572723388672 C 201.18783569335938 161.02099609375 189.10260009765625 174.61053466796875 191.58494567871094 157.7266082763672" stroke-width="2.0" fill="rgb(7, -9, -3)" opacity="0.3971304"/>
    <path d="M 237.2782745361328 91.9476547241211 C 196.7619171142578 72.42666625976562 149.47300720214844 65.20097351074219 180.72732543945312 65.18603515625 C 198.08251953125 66.16278076171875 200.9046630859375 69.49164581298828 236.9301300048828 67.21330261230469 C 243.4215850830078 52.55294418334961 245.9688720703125 53.08778762817383 233.8658905029297 49.162879943847656 C 229.01490783691406 49.87700653076172 240.89663696289062 60.268798828125 237.2782745361328 91.9476547241211" stroke-width="2.0" fill="rgb(167, 166, 91)" opacity="0.46488807"/>
    <path d="M 55.16838073730469 211.9513702392578 C 59.34154510498047 193.16615295410156 87.31451416015625 182.5522003173828 99.84107208251953 238.49127197265625 C 15.773064613342285 244.4730682373047 39.37085723876953 226.1837921142578 28.21585464477539 191.006103515625 C 129.19540405273438 170.53854370117188 118.43954467773438 248.30531311035156 79.64989471435547 215.780517578125 C 47.16664123535156 212.50201416015625 28.381084442138672 162.4965057373047 13.130338668823242 229.46792602539062 C 54.902915954589844 194.63308715820312 74.53578186035156 159.67254638671875 55.16838073730469 211.9513702392578" stroke-width="2.0" fill="rgb(69, 125, -25)" opacity="0.57524294"/>
    <path d="M -14.091447830200195 152.6898956298828 C -5.060789585113525 132.12696838378906 -9.893603324890137 131.90174865722656 -6.345136642456055 129.4988555908203 C -1.797959566116333 133.27517700195312 -2.8075108528137207 137.82467651367188 -36.100791931152344 124.807373046875 C -8.935032844543457 128.57997131347656 24.286590576171875 122.06802368164062 37.03110122680664 145.89878845214844 C -32.45774841308594 143.19529724121094 -38.83096694946289 141.10684204101562 6.561653137207031 153.5927276611328 C 65.24984741210938 176.4742889404297 36.735408782958984 148.4310760498047 -14.091447830200195 152.6898956298828" stroke-width="2.0" fill="rgb(150, 109, 66)" opacity="0.3981102"/>
    <path d="M 38.68476486206055 31.328636169433594 C 84.07923889160156 53.987613677978516 89.38975524902344 36.219818115234375 68.31989288330078 72.27761840820312 C 134.2851104736328 80.9635238647461 101.58786010742188 60.043827056884766 84.83403015136719 45.403175354003906 C 95.96807861328125 71.03611755371094 75.77642822265625 -8.814188003540039 38.68476486206055 31.328636169433594" stroke-width="2.0" fill="rgb(293, 132, 34)" opacity="0.117790036"/>
    <path d="M 196.25466918945312 221.12217712402344 C 165.6440887451172 158.26675415039062 236.19129943847656 221.42210388183594 187.6708984375 141.31141662597656 C 175.1456756591797 219.52149963378906 161.59158325195312 236.0742950439453 172.62342834472656 238.9477081298828 C 176.47898864746094 234.97592163085938 178.5882110595703 218.88121032714844 152.86474609375 231.24546813964844 C 172.19479370117188 225.11627197265625 193.10220336914062 237.19740295410156 196.25466918945312 221.12217712402344" stroke-width="2.0" fill="rgb(-9, 9, 26)" opacity="0.4033115"/>
    <path d="M 50.80622100830078 18.88947868347168 C 91.95636749267578 40.32679748535156 51.35891342163086 42.76026153564453 -1.4269371032714844 39.92848587036133 C 19.78608512878418 -3.1635990142822266 -3.7127959728240967 80.30860137939453 47.74812698364258 114.09767150878906 C 43.80562973022461 45.62703323364258 1.290175199508667 -0.9926097989082336 55.534080505371094 19.600679397583008 C 22.108848571777344 57.36829376220703 25.766239166259766 77.16793823242188 67.06327056884766 84.42884063720703 C 25.113815307617188 115.63351440429688 48.60513687133789 100.39216613769531 50.80622100830078 18.88947868347168" stroke-width="2.0" fill="rgb(238, 245, 212)" opacity="0.22232075"/>
    <path d="M 101.41563415527344 215.9360809326172 C 131.31463623046875 173.575927734375 126.91596984863281 145.84561157226562 96.54405975341797 170.92979431152344 C 133.01849365234375 189.2169647216797 119.15766143798828 161.58070373535156 126.4358901977539 167.51028442382812 C 164.03884887695312 172.84188842773438 207.16311645507812 220.15740966796875 101.41563415527344 215.9360809326172" stroke-width="2.0" fill="rgb(31, 42, -31)" opacity="0.2987671"/>
    <path d="M 9.942320823669434 200.07948303222656 C 13.662171363830566 200.88914489746094 -5.719171047210693 219.51690673828125 25.32314109802246 211.67153930664062 C 27.85146713256836 195.85020446777344 -3.035719633102417 191.4381866455078 -8.39680290222168 178.56785583496094 C -19.282413482666016 185.41802978515625 -10.751482963562012 188.6060333251953 9.942320823669434 200.07948303222656" stroke-width="2.0" fill="rgb(255, 143, 1)" opacity="0.3737099"/>
    <path d="M 155.17971801757812 202.30078125 C 158.86891174316406 193.4562530517578 163.5261688232422 206.2151641845703 152.91941833496094 186.71060180664062 C 150.77810668945312 205.45265197753906 187.4640350341797 194.17137145996094 203.0557861328125 216.7027130126953 C 211.1458740234375 201.51004028320312 175.9066162109375 198.55615234375 163.638671875 198.00157165527344 C 216.4769287109375 219.93896484375 160.33676147460938 263.4036560058594 145.48475646972656 194.05873107910156 C 195.86654663085938 184.30747985839844 136.85968017578125 194.20680236816406 155.17971801757812 202.30078125" stroke-width="2.0" fill="rgb(119, 143, 24)" opacity="0.70597315"/>
    <path d="M 33.881587982177734 185.5912628173828 C 50.53358840942383 168.57321166992188 44.448089599609375 152.93438720703125 3.128727674484253 158.5689697265625 C 58.74657440185547 166.88987731933594 48.82509231567383 164.06272888183594 -10.611628532409668 157.5725860595703 C 73.76234436035156 169.3233642578125 67.22119903564453 173.38404846191406 33.881587982177734 185.5912628173828" stroke-width="2.0" fill="rgb(221, 92, 76)" opacity="0.16658431"/>
    <path d="M 130.4819793701172 131.48133850097656 C 139.0991973876953 143.58294677734375 133.9765625 148.23074340820312 117.17436981201172 138.29273986816406 C 134.29864501953125 148.09625244140625 124.4957046508789 126.92424774169922 123.83814239501953 141.3885955810547 C 121.03964233398438 132.62850952148438 152.29945373535156 135.307373046875 130.4819793701172 131.48133850097656" stroke-width="2.0" fill="rgb(40, 50, 7)" opacity="0.48512378"/>
    <path d="M 158.67160034179688 51.79878616333008 C 144.18251037597656 11.987380981445312 157.60943603515625 7.028407573699951 185.43260192871094 -4.914061546325684 C 201.275634765625 19.585222244262695 233.3180694580078 25.07392120361328 192.45558166503906 14.69739818572998 C 167.26544189453125 1.6069588661193848 175.13259887695312 15.375919342041016 234.04376220703125 10.230890274047852 C 230.12826538085938 34.61978530883789 194.3496551513672 24.994258880615234 158.67160034179688 51.79878616333008" stroke-width="2.0" fill="rgb(196, 226, 212)" opacity="0.017505312"/>
    <path d="M 232.59706115722656 191.61878967285156 C 201.1604766845703 175.2479705810547 197.1603240966797 220.52993774414062 183.8212127685547 230.4842529296875 C 227.52732849121094 227.53355407714844 221.91513061523438 221.8676300048828 212.8760986328125 229.31988525390625 C 201.1370849609375 223.94351196289062 202.99122619628906 220.84205627441406 214.01382446289062 234.2473907470703 C 223.61785888671875 232.1553955078125 232.10537719726562 222.8284454345703 232.59706115722656 191.61878967285156" stroke-width="2.0" fill="rgb(129, 189, 27)" opacity="0.6721491"/>
    <path d="M 128.31326293945312 190.0037841796875 C 97.03367614746094 223.169189453125 133.0751190185547 183.35858154296875 93.99735260009766 194.21182250976562 C 89.18487548828125 205.8380889892578 73.1377182006836 206.73072814941406 65.61282348632812 162.64100646972656 C 98.88782501220703 157.80609130859375 111.16954040527344 174.309814453125 128.31326293945312 190.0037841796875" stroke-width="2.0" fill="rgb(214, 168, 141)" opacity="0.37772802"/>
    <path d="M 64.38086700439453 162.89404296875 C 118.92596435546875 206.81837463378906 108.70246887207031 185.23089599609375 85.1750717163086 123.64200592041016 C 64.38526153564453 130.12684631347656 42.47014236450195 137.01400756835938 142.3506622314453 127.01192474365234 C 127.16840362548828 183.52391052246094 80.0080795288086 140.05044555664062 64.38086700439453 162.89404296875" stroke-width="2.0" fill="rgb(56, 66, -15)" opacity="0.20117259"/>
    <path d="M 23.81559181213379 202.601806640625 C 28.495271682739258 190.6947021484375 67.87387084960938 210.24000549316406 88.52330017089844 110.39325714111328 C 6.560356140136719 136.80316162109375 -7.845246315002441 145.51943969726562 4.094851970672607 205.12977600097656 C -2.858380079269409 144.06204223632812 -9.556640625 146.335693359375 23.81559181213379 202.601806640625" stroke-width="2.0" fill="rgb(245, 217, 185)" opacity="0.4124929"/>
    <path d="M 124.90209197998047 108.59284973144531 C 137.01715087890625 97.39374542236328 161.92576599121094 90.72898864746094 126.38330841064453 102.11231231689453 C 117.01676177978516 99.98358154296875 112.81983947753906 98.84298706054688 157.72705078125 61.545166015625 C 89.1022720336914 51.8131217956543 105.8700942993164 72.3000259399414 126.34616088867188 120.3145751953125 C 98.56404876708984 105.24132537841797 93.20564270019531 79.43061828613281 124.90209197998047 108.59284973144531" stroke-width="2.0" fill="rgb(242, 268, 60)" opacity="0.23854293"/>
    <path d="M 151.6870574951172 77.50920867919922 C 135.70106506347656 29.292640686035156 165.312744140625 51.6787223815918 73.3936996459961 42.2618522644043 C 80.81599426269531 102.85599517822266 91.44652557373047 75.81201171875 102.60824584960938 67.06295776367188 C 102.1956787109375 90.76461029052734 111.63754272460938 99.2108154296875 116.57328796386719 114.12743377685547 C 126.10863494873047 93.24689483642578 127.8670654296875 107.6289291381836 151.6870574951172 77.50920867919922" stroke-width="2.0" fill="rgb(165, 210, 66)" opacity="0.06468231"/>
    <path d="M 51.90910339355469 202.83729553222656 C 64.62709045410156 178.43795776367188 81.79032897949219 207.57177734375 58.12471389770508 197.1922149658203 C 102.15618133544922 177.72518920898438 49.78704071044922 199.9748077392578 64.23896789550781 222.77732849121094 C 74.99512481689453 191.03155517578125 74.1837158203125 201.29580688476562 75.34060668945312 183.54946899414062 C 84.38652801513672 202.38844299316406 76.43897247314453 226.1849365234375 93.89877319335938 173.78317260742188 C 98.79554748535156 207.35873413085938 79.01956939697266 204.3437042236328 51.90910339355469 202.83729553222656" stroke-width="2.0" fill="rgb(-10, -2, -52)" opacity="0.40749407"/>
    <path d="M 117.13011932373047 82.33192443847656 C 63.8936653137207 99.60922241210938 97.00083923339844 119.5373306274414 102.14044189453125 120.78632354736328 C 90.80120086669922 111.20902252197266 124.79158782958984 162.22567749023438 103.0425033569336 151.05584716796875 C 130.7550048828125 167.87901306152344 132.01014709472656 93.84445190429688 96.40097045898438 113.92019653320312 C 107.07268524169922 111.2601547241211 125.34133911132812 112.71646881103516 108.3671646118164 112.63818359375 C 130.0822296142578 108.53169250488281 158.7935028076172 85.70027923583984 117.13011932373047 82.33192443847656" stroke-width="2.0" fill="rgb(76, 124, 6)" opacity="0.4893532"/>
    <path d="M -12.595621109008789 226.64198303222656 C 37.41672134399414 171.9863739013672 49.398223876953125 220.64134216308594 34.99163818359375 190.9892578125 C -3.65901780128479 203.0216827392578 -21.545133590698242 185.8647003173828 19.848726272583008 206.27745056152344 C 55.55231857299805 199.0272674560547 32.011085510253906 207.1162872314453 53.456058502197266 180.98562622070312 C 89.31613159179688 226.93930053710938 83.63160705566406 256.75848388671875 -12.595621109008789 226.64198303222656" stroke-width="2.0" fill="rgb(112, 136, 47)" opacity="0.73090214"/>
    <path d="M 110.9509506225586 134.3742218017578 C 105.48611450195312 165.11131286621094 123.4979019165039 168.81410217285156 121.68106842041016 188.2426300048828 C 105.17207336425781 158.9667205810547 79.73590087890625 156.6991424560547 85.50636291503906 174.55528259277344 C 120.5804672241211 153.91104125976562 93.10075378417969 169.22000122070312 54.23663330078125 165.85862731933594 C 88.5822982788086 194.78416442871094 110.02690124511719 165.3332977294922 110.9509506225586 134.3742218017578" stroke-width="2.0" fill="rgb(-2, -36, -61)" opacity="0.24104744"/>
    <path d="M 169.7653045654297 114.5633773803711 C 178.28695678710938 75.64586639404297 166.04327392578125 79.17533874511719 196.50514221191406 92.14116668701172 C 184.63870239257812 174.92703247070312 189.69276428222656 115.01578521728516 169.9544677734375 123.46642303466797 C 177.5358123779297 86.25102996826172 150.32012939453125 85.21510314941406 186.56407165527344 91.45608520507812 C 157.0695037841797 118.56859588623047 227.22952270507812 75.84364318847656 169.7653045654297 114.5633773803711" stroke-width="2.0" fill="rgb(52, 50, 42)" opacity="0.8936243"/>
    <path d="M 155.81373596191406 63.94297409057617 C 196.5154266357422 58.533851623535156 190.5366668701172 71.55590057373047 225.4234619140625 68.99285125732422 C 237.80557250976562 63.77543640136719 251.21380615234375 70.36619567871094 226.83645629882812 62.77522277832031 C 227.84628295898438 58.800960540771484 229.98379516601562 57.106895446777344 226.11402893066406 78.53668212890625 C 222.63272094726562 80.80733489990234 230.0060577392578 78.80030059814453 228.76736450195312 97.08171081542969 C 253.95790100097656 90.65287780761719 214.9105224609375 89.60955810546875 155.81373596191406 63.94297409057617" stroke-width="2.0" fill="rgb(113, 119, 44)" opacity="0.20779392"/>
    <path d="M 8.479072570800781 71.44438171386719 C 43.64345932006836 39.812843322753906 3.5285301208496094 73.20039367675781 -11.033500671386719 85.08903503417969 C -37.38087844848633 15.123623847961426 10.8956937789917 36.84358596801758 28.599964141845703 15.093545913696289 C 38.923213958740234 51.67439651489258 41.3540153503418 96.43508911132812 19.39966583251953 60.083797454833984 C -6.415469646453857 68.44559478759766 10.214540481567383 47.13494110107422 8.479072570800781 71.44438171386719" stroke-width="2.0" fill="rgb(261, 133, 59)" opacity="0.18598755"/>
    <path d="M 165.4449005126953 171.855712890625 C 141.7251739501953 151.72991943359375 161.9167022705078 152.95428466796875 140.9803924560547 150.87161254882812 C 136.12020874023438 169.68426513671875 146.10128784179688 174.14260864257812 135.0384521484375 167.86692810058594 C 119.22425079345703 197.38821411132812 154.1060791015625 172.37588500976562 165.4449005126953 171.855712890625" stroke-width="2.0" fill="rgb(-2, -4, -38)" opacity="0.3699139"/>
    <path d="M 98.51946258544922 87.62193298339844 C 139.90740966796875 72.76544189453125 128.23573303222656 104.78247833251953 156.03355407714844 124.55035400390625 C 142.03707885742188 110.90608978271484 106.81973266601562 114.91802978515625 107.99076843261719 87.26166534423828 C 99.66983032226562 84.84886932373047 113.39793395996094 81.03169250488281 90.93800354003906 99.79633331298828 C 99.01610565185547 88.41361236572266 99.30256652832031 89.72856903076172 147.9292449951172 122.70497131347656 C 115.97923278808594 163.05563354492188 82.07329559326172 109.97532653808594 98.51946258544922 87.62193298339844" stroke-width="2.0" fill="rgb(152, 173, 74)" opacity="0.7435957"/>
    <path d="M 226.09686279296875 44.45344161987305 C 229.07272338867188 31.07054901123047 230.8380584716797 35.14304733276367 237.7667694091797 77.29634094238281 C 157.8290252685547 72.56990814208984 146.21493530273438 52.58612060546875 219.78529357910156 67.91941833496094 C 243.3527374267578 64.12667846679688 245.2359619140625 71.42330932617188 226.09686279296875 44.45344161987305" stroke-width="2.0" fill="rgb(26, 38, -66)" opacity="0.10968294"/>
    <path d="M 28.928543090820312 238.25393676757812 C -45.13990783691406 213.8148956298828 7.791650295257568 216.2542266845703 44.08161163330078 234.59629821777344 C 21.82611656188965 239.47552490234375 20.804927825927734 224.80899047851562 23.050317764282227 229.8669891357422 C -35.14546203613281 232.2335205078125 -25.75693702697754 153.1161651611328 10.105780601501465 181.61614990234375 C 59.19697570800781 182.24229431152344 46.12050247192383 181.43739318847656 28.928543090820312 238.25393676757812" stroke-width="2.0" fill="rgb(84, 106, 10)" opacity="0.3982111"/>
    <path d="M 157.37652587890625 89.91378021240234 C 115.7003402709961 108.04280090332031 137.74464416503906 90.93549346923828 192.08148193359375 113.8365478515625 C 129.80661010742188 117.44080352783203 142.6536102294922 143.29193115234375 150.27967834472656 96.44330596923828 C 134.07418823242188 86.44395446777344 141.97708129882812 141.2880859375 196.6655731201172 126.39311981201172 C 137.423583984375 95.96112823486328 127.51338958740234 89.10795593261719 157.37652587890625 89.91378021240234" stroke-width="2.0" fill="rgb(56, 44, 49)" opacity="0.59840363"/>
    <path d="M 165.28163146972656 96.95375061035156 C 168.0440673828125 80.9427719116211 153.19049072265625 105.58743286132812 166.64663696289062 105.12430572509766 C 129.24024963378906 121.55032348632812 137.65440368652344 91.82678985595703 167.6016082763672 123.2414321899414 C 174.426513671875 98.82276916503906 174.7154083251953 54.420562744140625 153.48638916015625 97.0786361694336 C 150.64195251464844 121.95105743408203 170.20333862304688 97.26058197021484 165.28163146972656 96.95375061035156" stroke-width="2.0" fill="rgb(80, 41, -16)" opacity="0.37441537"/>
    <path d="M 75.63343048095703 210.9043426513672 C 76.86708068847656 227.8505859375 98.68366241455078 200.48828125 103.96675872802734 189.66175842285156 C 103.61985778808594 187.59046936035156 112.12621307373047 172.521240234375 102.25553131103516 210.0292205810547 C 108.85647583007812 220.6853790283203 111.54918670654297 201.0194549560547 112.80615997314453 150.53634643554688 C 65.39002990722656 181.4770965576172 68.72315216064453 204.7076416015625 102.31349182128906 165.96365356445312 C 78.25406646728516 168.02894592285156 77.18097686767578 188.87142944335938 75.63343048095703 210.9043426513672" stroke-width="2.0" fill="rgb(-20, -2, -24)" opacity="0.20608948"/>
    <path d="M 171.62062072753906 54.23184585571289 C 153.28372192382812 9.516178131103516 134.51272583007812 46.7053108215332 145.04139709472656 65.56524658203125 C 159.63800048828125 73.07301330566406 147.79600524902344 77.12750244140625 181.89346313476562 79.19172668457031 C 217.6191864013672 90.86590576171875 205.39060974121094 70.46752166748047 171.62062072753906 54.23184585571289" stroke-width="2.0" fill="rgb(253, 313, -46)" opacity="0.10742055"/>
    <path d="M -16.817523956298828 109.65144348144531 C -18.965782165527344 148.59764099121094 33.828094482421875 151.87574768066406 34.06627655029297 99.21878051757812 C 42.10037612915039 29.63535499572754 39.800907135009766 67.28710174560547 26.882556915283203 93.48533630371094 C 14.675668716430664 50.70501708984375 29.690513610839844 85.13511657714844 -16.817523956298828 109.65144348144531" stroke-width="2.0" fill="rgb(163, 136, 74)" opacity="0.23703478"/>
    <path d="M 61.52278518676758 122.19758605957031 C 95.7504653930664 133.76708984375 97.70576477050781 146.9052734375 55.186397552490234 89.63433837890625 C -16.706806182861328 97.8694839477539 -14.734517097473145 111.71837615966797 38.677162170410156 150.7183380126953 C 40.103065490722656 164.68507385253906 49.3182373046875 109.98588562011719 61.52278518676758 122.19758605957031" stroke-width="2.0" fill="rgb(220, 179, 110)" opacity="0.27717105"/>
    <path d="M 147.76934814453125 51.27017593383789 C 163.57469177246094 58.23481369018555 132.6709442138672 70.97361755371094 125.3603515625 84.6591567993164 C 124.8362808227539 77.81617736816406 145.42739868164062 53.204044342041016 181.92098999023438 61.57707595825195 C 136.38426208496094 90.67123413085938 139.4918670654297 73.31161499023438 104.48757934570312 53.243690490722656 C 117.61871337890625 81.218994140625 119.98108673095703 71.01112365722656 147.76934814453125 51.27017593383789" stroke-width="2.0" fill="rgb(203, 259, 116)" opacity="0.1345605"/>
    <path d="M 144.1984405517578 87.45791625976562 C 104.81442260742188 99.259033203125 84.0543212890625 159.3660125732422 123.33633422851562 141.25660705566406 C 149.6851348876953 137.1576690673828 165.75587463378906 99.93942260742188 165.6211700439453 108.91039276123047 C 126.05057525634766 97.50079345703125 113.38854217529297 103.30182647705078 57.02909469604492 123.79606628417969 C 93.14317321777344 63.79680252075195 101.82347869873047 73.4191665649414 144.1984405517578 87.45791625976562" stroke-width="2.0" fill="rgb(153, 150, 118)" opacity="0.3281114"/>
    <path d="M 109.09474182128906 160.37538146972656 C 85.96363830566406 134.7892608642578 82.357421875 185.61337280273438 72.01518249511719 166.52120971679688 C 59.50737762451172 135.84912109375 100.10694885253906 131.0258331298828 95.10212707519531 154.5374755859375 C 53.71714401245117 177.84681701660156 54.106197357177734 166.11502075195312 48.90891647338867 147.2066192626953 C 71.09991455078125 109.912353515625 89.50408172607422 120.3377456665039 109.09474182128906 160.37538146972656" stroke-width="2.0" fill="rgb(201, 138, 89)" opacity="0.22674151"/>
    <path d="M 91.66673278808594 136.58189392089844 C 95.85920715332031 131.38983154296875 77.80445861816406 143.8708953857422 76.33164978027344 157.66603088378906 C 61.962501525878906 151.20838928222656 122.44114685058594 135.56857299804688 84.80992126464844 151.60311889648438 C 69.85883331298828 147.61920166015625 53.763099670410156 162.64077758789062 96.03453063964844 142.81930541992188 C 95.6156005859375 152.6591339111328 61.49805450439453 156.56027221679688 91.66673278808594 136.58189392089844" stroke-width="2.0" fill="rgb(64, 7, 23)" opacity="0.45261005"/>
    <path d="M 114.56185913085938 178.49903869628906 C 90.38265991210938 138.89456176757812 100.20970916748047 151.23072814941406 104.43231201171875 139.58029174804688 C 41.368873596191406 129.6013946533203 61.73008728027344 136.02105712890625 73.28662109375 137.91659545898438 C 81.55177307128906 162.82130432128906 24.55431365966797 153.7947998046875 55.78063201904297 154.95884704589844 C 99.30621337890625 196.89256286621094 77.80239868164062 198.00926208496094 114.56185913085938 178.49903869628906" stroke-width="2.0" fill="rgb(241, 223, 216)" opacity="0.67474383"/>
    <path d="M 203.8455810546875 183.99766540527344 C 218.08895874023438 221.21446228027344 247.98216247558594 180.71710205078125 171.37245178222656 149.58761596679688 C 195.17823791503906 190.8720703125 228.31622314453125 198.37171936035156 239.4116668701172 227.4198760986328 C 177.1702423095703 218.2592315673828 178.82273864746094 242.2515411376953 190.14271545410156 199.24734497070312 C 163.28485107421875 171.60557556152344 123.88310241699219 172.68174743652344 203.8455810546875 183.99766540527344" stroke-width="2.0" fill="rgb(58, 49, 40)" opacity="0.3929076"/>
    <path d="M 97.94673919677734 72.33353424072266 C 98.38838958740234 85.79645538330078 116.9858627319336 69.08544158935547 102.32107543945312 89.11996459960938 C 96.6492919921875 99.79830932617188 51.585750579833984 95.4546890258789 100.01268005371094 89.555419921875 C 120.91223907470703 62.567508697509766 107.55134582519531 64.73229217529297 97.94673919677734 72.33353424072266" stroke-width="2.0" fill="rgb(-10, -28, -16)" opacity="0.80399907"/>
    <path d="M 37.82223129272461 164.2127227783203 C 32.24197769165039 171.02845764160156 81.21383666992188 174.1079559326172 53.05732345581055 205.4373779296875 C -19.518709182739258 143.436279296875 50.03379821777344 170.4862060546875 34.29745864868164 195.97389221191406 C 12.428231239318848 157.97340393066406 34.007389068603516 143.6567840576172 37.82223129272461 164.2127227783203" stroke-width="2.0" fill="rgb(275, 318, 400)" opacity="-0.099769056"/>
    <path d="M 157.86062622070312 6.510231971740723 C 155.74705505371094 -4.752961158752441 165.73196411132812 -8.716712951660156 163.2109832763672 8.576993942260742 C 153.80953979492188 14.856578826904297 176.4394073486328 6.775641441345215 169.28257751464844 18.356779098510742 C 158.69940185546875 -13.289066314697266 180.49063110351562 -5.843663215637207 167.0857391357422 4.864445209503174 C 184.05221557617188 -6.6986236572265625 174.9829864501953 6.22900915145874 157.86062622070312 6.510231971740723" stroke-width="2.0" fill="rgb(235, 237, 243)" opacity="0.07304329"/>
    <path d="M 71.76239776611328 168.5507354736328 C 55.51871871948242 124.18089294433594 89.67533874511719 143.2971649169922 51.52977752685547 151.55801391601562 C 26.30714225769043 97.90394592285156 62.05889129638672 113.265380859375 70.6586685180664 119.7493896484375 C 52.888816833496094 96.2936019897461 56.17036437988281 107.62662506103516 89.2938461303711 139.21359252929688 C 66.41806030273438 135.59939575195312 104.50658416748047 119.91139221191406 71.76239776611328 168.5507354736328" stroke-width="2.0" fill="rgb(264, 233, 204)" opacity="0.40384585"/>
    <path d="M 25.358705520629883 21.754180908203125 C 34.524253845214844 115.95331573486328 52.55231857299805 44.43732833862305 -0.8054101467132568 29.064250946044922 C 1.3360753059387207 17.284828186035156 -12.985796928405762 27.965866088867188 -8.888203620910645 30.091806411743164 C 50.99658966064453 72.52214050292969 1.2519207000732422 52.18580627441406 25.358705520629883 21.754180908203125" stroke-width="2.0" fill="rgb(168, 121, 21)" opacity="0.25308055"/>
    <path d="M 190.23448181152344 113.55752563476562 C 154.99954223632812 130.2178497314453 177.9818115234375 125.41028594970703 158.17247009277344 85.06696319580078 C 199.20787048339844 131.23435974121094 188.76858520507812 185.38182067871094 194.99656677246094 106.17353057861328 C 175.36505126953125 84.01544952392578 125.8320083618164 112.5412368774414 190.23448181152344 113.55752563476562" stroke-width="2.0" fill="rgb(-25, -33, -56)" opacity="0.42331514"/>
    <path d="M 229.81077575683594 89.67935943603516 C 226.6640167236328 94.06175231933594 221.0677490234375 92.13784790039062 229.87582397460938 69.35748291015625 C 227.5208740234375 87.0733642578125 224.97598266601562 92.88912200927734 225.0696258544922 92.40850067138672 C 223.09912109375 85.13553619384766 225.68309020996094 90.59382629394531 225.46774291992188 89.65205383300781 C 224.69540405273438 91.5595474243164 221.3831024169922 90.48250579833984 229.81077575683594 89.67935943603516" stroke-width="2.0" fill="rgb(173, 121, 97)" opacity="0.48941106"/>
    <path d="M 63.95631790161133 82.65980529785156 C 110.54672241210938 94.67798614501953 98.62647247314453 129.977783203125 92.61299896240234 103.70466613769531 C 49.272579193115234 83.69097137451172 58.945796966552734 104.62702941894531 65.13024139404297 101.40554809570312 C 48.84614181518555 100.06554412841797 49.83462142944336 88.57853698730469 58.202247619628906 89.25662994384766 C 83.53752136230469 120.48726654052734 66.1916732788086 138.85975646972656 38.81631851196289 88.65266418457031 C 71.4735336303711 77.3909912109375 65.33462524414062 78.65550231933594 63.95631790161133 82.65980529785156" stroke-width="2.0" fill="rgb(166, 102, 31)" opacity="0.13961557"/>
    <path d="M 167.81442260742188 182.2541046142578 C 144.08375549316406 130.46005249023438 231.88168334960938 157.74000549316406 155.06692504882812 152.5066680908203 C 122.177978515625 172.836669921875 104.47429656982422 153.06488037109375 149.9366912841797 139.64532470703125 C 131.80824279785156 204.73760986328125 99.45580291748047 174.4637908935547 127.81755828857422 156.37481689453125 C 153.1753692626953 208.95086669921875 139.485107421875 175.71969604492188 144.0108642578125 159.40602111816406 C 156.2569580078125 202.4278564453125 123.76861572265625 159.6443634033203 167.81442260742188 182.2541046142578" stroke-width="2.0" fill="rgb(196, 189, 158)" opacity="0.3916493"/>
    <path d="M 11.476654052734375 61.90774154663086 C 22.17689323425293 57.16838073730469 40.16246795654297 31.00210952758789 15.837950706481934 13.423713684082031 C -38.54204177856445 42.61857223510742 -3.886993885040283 86.37007141113281 32.595787048339844 87.56001281738281 C 29.389545440673828 55.36375427246094 7.854971885681152 43.99928283691406 15.301325798034668 70.76337432861328 C 11.321563720703125 48.89580154418945 1.8350285291671753 27.241487503051758 11.476654052734375 61.90774154663086" stroke-width="2.0" fill="rgb(251, 208, 157)" opacity="0.44383484"/>
    <path d="M 42.13701248168945 0.4430118501186371 C 20.142412185668945 -3.7484729290008545 17.97756004333496 -0.9068504571914673 14.60418701171875 -6.880537033081055 C 23.118253707885742 -3.841480016708374 10.916898727416992 -6.667389392852783 19.961036682128906 -5.028729438781738 C 72.15994262695312 20.89333152770996 83.76234436035156 35.73335266113281 20.649045944213867 30.767663955688477 C 10.268817901611328 53.31444549560547 8.252735137939453 67.92496490478516 -7.1938700675964355 29.588703155517578 C 24.569528579711914 8.437582969665527 32.87374496459961 10.809488296508789 42.13701248168945 0.4430118501186371" stroke-width="2.0" fill="rgb(240, 159, 87)" opacity="0.137614"/>
    <path d="M 23.42674446105957 176.85787963867188 C 114.14104461669922 196.4656982421875 34.691261291503906 202.48941040039062 -7.282400608062744 169.94606018066406 C 26.238462448120117 144.616943359375 83.23076629638672 168.323486328125 30.776134490966797 161.2115936279297 C -1.4893889427185059 126.37089538574219 -30.545289993286133 159.74331665039062 23.42674446105957 176.85787963867188" stroke-width="2.0" fill="rgb(89, 68, 52)" opacity="0.13610372"/>
    <path d="M 227.20033264160156 3.0917508602142334 C 223.7728271484375 17.359619140625 224.75401306152344 9.642212867736816 228.50294494628906 -10.793294906616211 C 230.8675994873047 5.2115983963012695 231.08590698242188 4.050179958343506 238.47377014160156 4.895873546600342 C 235.73666381835938 2.865391492843628 232.9488067626953 7.110904693603516 227.20033264160156 3.0917508602142334" stroke-width="2.0" fill="rgb(207, 282, 198)" opacity="0.10041784"/>
    <path d="M 64.52642059326172 210.57391357421875 C 90.34551239013672 246.4910888671875 113.87440490722656 196.4357147216797 78.78400421142578 188.50723266601562 C 41.91411209106445 233.07623291015625 43.48905944824219 242.27879333496094 56.40718460083008 144.30062866210938 C 35.317359924316406 177.56854248046875 32.63041687011719 162.7220916748047 52.65235137939453 153.79893493652344 C 64.01960754394531 105.26052856445312 93.91568756103516 148.7056884765625 110.00513458251953 223.036865234375 C 63.67757034301758 179.64434814453125 31.65113639831543 183.23565673828125 64.52642059326172 210.57391357421875" stroke-width="2.0" fill="rgb(248, 196, 138)" opacity="0.15876801"/>
    <path d="M 233.2680206298828 62.9015007019043 C 239.00408935546875 74.85257720947266 198.24020385742188 65.02774047851562 189.47706604003906 93.44621276855469 C 245.99371337890625 101.49979400634766 245.24571228027344 79.96127319335938 232.19505310058594 73.90104675292969 C 231.08750915527344 80.86148834228516 229.1602020263672 68.27566528320312 233.2680206298828 62.9015007019043" stroke-width="2.0" fill="rgb(186, 170, 97)" opacity="0.34700224"/>
    <path d="M 70.52718353271484 17.637720108032227 C 104.01321411132812 87.99974060058594 87.15364837646484 30.00368881225586 73.85214233398438 24.617286682128906 C 40.665531158447266 67.51542663574219 91.32980346679688 42.43006896972656 67.20699310302734 40.2324333190918 C 72.61698150634766 37.129703521728516 78.01245880126953 12.032243728637695 61.013999938964844 48.0273323059082 C 100.71880340576172 8.244604110717773 27.69938087463379 -0.1960037350654602 -24.83502197265625 0.9657129049301147 C 48.451839447021484 -37.74147415161133 73.27378845214844 -59.3406867980957 70.52718353271484 17.637720108032227" stroke-width="2.0" fill="rgb(14, 9, 7)" opacity="0.8897565"/>
    <path d="M 159.68551635742188 49.85602569580078 C 188.1272735595703 20.401016235351562 128.64268493652344 20.429773330688477 172.3945770263672 147.1566925048828 C 203.8080596923828 98.65139770507812 148.2582244873047 45.023590087890625 174.8854217529297 43.759525299072266 C 181.23553466796875 64.64981842041016 198.80442810058594 57.92417526245117 201.4942626953125 64.82567596435547 C 208.7350616455078 95.98887634277344 174.83645629882812 75.86500549316406 159.68551635742188 49.85602569580078" stroke-width="2.0" fill="rgb(244, 217, 163)" opacity="0.1354481"/>
    <path d="M 196.64695739746094 71.14480590820312 C 196.30587768554688 50.970726013183594 136.14138793945312 60.2132568359375 159.42138671875 61.082969665527344 C 116.27383422851562 48.471519470214844 123.87159729003906 57.513858795166016 173.6717529296875 82.887451171875 C 193.94618225097656 89.64495849609375 191.945068359375 64.34539794921875 198.64451599121094 102.49420166015625 C 159.4556427001953 94.76408386230469 128.47723388671875 76.90933990478516 196.64695739746094 71.14480590820312" stroke-width="2.0" fill="rgb(196, 107, 185)" opacity="0.08612877"/>
    <path d="M 219.18353271484375 171.09738159179688 C 185.73602294921875 198.03990173339844 194.95211791992188 190.07679748535156 213.5282745361328 218.7255096435547 C 171.894287109375 217.61834716796875 176.89193725585938 226.35171508789062 192.53492736816406 227.4926300048828 C 196.17877197265625 215.04098510742188 191.8909912109375 238.7841339111328 171.396484375 183.97512817382812 C 211.0936279296875 198.41766357421875 204.36390686035156 210.05828857421875 186.4576416015625 230.0144500732422 C 228.74053955078125 239.12742614746094 230.08470153808594 188.65994262695312 219.18353271484375 171.09738159179688" stroke-width="2.0" fill="rgb(129, 148, 44)" opacity="0.6229289"/>
    <path d="M 180.4005126953125 52.52117156982422 C 170.31764221191406 73.18592834472656 199.95724487304688 83.94902801513672 230.1064453125 73.9461898803711 C 221.68426513671875 53.9337043762207 232.33651733398438 68.39600372314453 232.55421447753906 73.89996337890625 C 205.8970489501953 58.319610595703125 190.70384216308594 78.4664535522461 180.4005126953125 52.52117156982422" stroke-width="2.0" fill="rgb(69, 96, 67)" opacity="0.031790633"/>
    <path d="M 172.74075317382812 -2.8786261081695557 C 168.3138885498047 -7.711806297302246 162.42723083496094 -10.736845016479492 162.31417846679688 -10.14593505859375 C 154.28904724121094 -10.52856159210205 149.42007446289062 -9.078473091125488 149.95582580566406 -12.709794998168945 C 153.3463134765625 -8.448505401611328 149.15357971191406 -9.224865913391113 172.74075317382812 -2.8786261081695557" stroke-width="2.0" fill="rgb(25, 56, 211)" opacity="0.9409395"/>
    <path d="M 138.75660705566406 161.2085418701172 C 144.37210083007812 177.873291015625 157.76380920410156 155.12863159179688 135.140625 152.1483154296875 C 162.51039123535156 144.7375030517578 150.3938751220703 142.77178955078125 134.04969787597656 160.37979125976562 C 153.0465545654297 162.54263305664062 156.85595703125 149.0216827392578 138.75660705566406 161.2085418701172" stroke-width="2.0" fill="rgb(33, 23, 20)" opacity="0.7179317"/>
    <path d="M 60.16887664794922 195.12765502929688 C 90.57466888427734 269.5397033691406 121.57014465332031 250.195068359375 170.71170043945312 249.4437713623047 C 164.33909606933594 250.7041473388672 158.453369140625 199.45846557617188 144.86569213867188 187.00758361816406 C 112.58936309814453 185.61317443847656 137.0017547607422 198.20118713378906 60.16887664794922 195.12765502929688" stroke-width="2.0" fill="rgb(131, 147, 41)" opacity="0.73157954"/>
    <path d="M 184.74705505371094 47.456321716308594 C 138.1375732421875 44.190155029296875 142.73374938964844 36.083030700683594 154.0030517578125 77.43733978271484 C 112.20689392089844 47.73293685913086 101.92083740234375 44.374507904052734 131.60574340820312 47.99156951904297 C 127.18293762207031 24.467077255249023 132.1538848876953 24.589815139770508 184.74705505371094 47.456321716308594" stroke-width="2.0" fill="rgb(165, 173, 194)" opacity="0.053209282"/>
    <path d="M 173.46224975585938 65.41703033447266 C 147.0378875732422 70.97434997558594 164.75881958007812 74.75146484375 161.6053466796875 60.44215774536133 C 197.6871795654297 70.64046478271484 165.24508666992188 64.1420669555664 190.82347106933594 63.931236267089844 C 158.21791076660156 54.45488739013672 153.56710815429688 87.89498138427734 240.6466064453125 124.74371337890625 C 286.6950378417969 104.1776123046875 236.16355895996094 86.12263488769531 173.46224975585938 65.41703033447266" stroke-width="2.0" fill="rgb(203, 202, 121)" opacity="0.55817366"/>
    <path d="M 226.7610321044922 74.76400756835938 C 159.73867797851562 67.84588623046875 167.49435424804688 53.88713455200195 192.48226928710938 62.15833282470703 C 191.47035217285156 65.08447265625 188.4585418701172 58.03682327270508 199.0404052734375 65.0758285522461 C 190.96755981445312 63.18943786621094 179.45953369140625 54.988651275634766 196.86358642578125 66.87893676757812 C 176.17942810058594 60.16030502319336 180.08602905273438 67.0646743774414 230.1768035888672 64.64437866210938 C 233.24453735351562 66.15716552734375 247.81097412109375 88.94364166259766 226.7610321044922 74.76400756835938" stroke-width="2.0" fill="rgb(47, 51, 2)" opacity="0.09870904"/>
  </g>
</svg>
