<?xml version="1.0" ?>
<svg xmlns="http://www.w3.org/2000/svg" version="1.1" width="224" height="224">
  <defs/>
  <g>
    <path d="M 204.81044006347656 131.77191162109375 C 203.46002197265625 136.01931762695312 214.80111694335938 124.22706604003906 212.66415405273438 139.4329833984375 C 205.02476501464844 133.3263702392578 181.91397094726562 148.17491149902344 193.46347045898438 88.86585998535156 C 66.55215454101562 38.42911911010742 187.64561462402344 13.85197639465332 320.8335876464844 66.26387023925781 C 226.10733032226562 181.03515625 192.6940155029297 160.0904541015625 204.81044006347656 131.77191162109375" stroke-width="2.0" fill="rgb(167, 228, 73)" opacity="0.36955044"/>
    <path d="M 60.9779052734375 120.5226058959961 C 146.77879333496094 137.5748748779297 82.420654296875 119.06423950195312 54.95207214355469 158.84884643554688 C 45.17585754394531 112.20414733886719 29.115942001342773 167.1971893310547 76.4271240234375 183.04957580566406 C 28.76329803466797 223.97164916992188 21.213363647460938 90.39351654052734 34.937110900878906 119.58556365966797 C 44.59322738647461 169.94801330566406 34.37994384765625 114.07820892333984 60.9779052734375 120.5226058959961" stroke-width="2.0" fill="rgb(250, 107, 137)" opacity="0.14482404"/>
    <path d="M 130.89305114746094 211.78909301757812 C 130.45928955078125 165.06149291992188 116.53012084960938 196.90933227539062 107.57040405273438 163.53976440429688 C 144.65330505371094 162.18431091308594 142.6975860595703 177.88302612304688 106.37464904785156 142.36810302734375 C 184.97348022460938 121.47701263427734 87.00767517089844 152.6256561279297 132.61167907714844 147.0618133544922 C 139.76699829101562 135.07469177246094 128.60362243652344 160.82470703125 158.8804168701172 190.98704528808594 C 139.5984649658203 226.1864471435547 151.75405883789062 148.95751953125 130.89305114746094 211.78909301757812" stroke-width="2.0" fill="rgb(140, 238, 162)" opacity="0.29138452"/>
    <path d="M 68.52741241455078 34.65174865722656 C 84.09282684326172 34.188316345214844 51.4342155456543 21.751144409179688 79.84798431396484 46.458518981933594 C 68.31128692626953 54.16654968261719 49.3202018737793 36.31344985961914 71.4310302734375 41.09115219116211 C 59.734527587890625 47.66709518432617 65.17440032958984 26.14956283569336 73.57655334472656 44.540592193603516 C 81.68379974365234 12.543981552124023 18.05787467956543 71.94827270507812 50.45038604736328 24.862951278686523 C 38.94196701049805 53.33021545410156 40.519901275634766 45.26423645019531 68.52741241455078 34.65174865722656" stroke-width="2.0" fill="rgb(55, 5, 56)" opacity="0.9428559"/>
    <path d="M 118.0351791381836 213.82058715820312 C 66.4743423461914 188.9868621826172 126.33582305908203 216.0703582763672 141.73403930664062 193.476806640625 C 207.8519287109375 211.8181610107422 142.7502899169922 188.74560546875 158.09259033203125 217.71713256835938 C 184.35244750976562 181.49032592773438 122.24562072753906 193.3585205078125 118.0351791381836 213.82058715820312" stroke-width="2.0" fill="rgb(111, 187, 209)" opacity="0.7365452"/>
    <path d="M 100.78307342529297 20.327674865722656 C 120.18973541259766 22.66493797302246 134.15492248535156 29.301403045654297 109.69132232666016 23.228172302246094 C 100.3951187133789 2.3107688426971436 127.32760620117188 10.57756519317627 105.85269927978516 -12.472418785095215 C 84.42366027832031 -4.410344123840332 90.92411804199219 24.980684280395508 97.66824340820312 8.578130722045898 C 95.03081512451172 20.62834930419922 140.24209594726562 28.900802612304688 58.10734939575195 12.638721466064453 C 107.2197036743164 1.2908109426498413 79.61841583251953 -2.214073419570923 100.78307342529297 20.327674865722656" stroke-width="2.0" fill="rgb(71, 228, 19)" opacity="0.21361141"/>
    <path d="M 26.913515090942383 70.57833099365234 C -15.752866744995117 10.84694766998291 9.599454879760742 41.747013092041016 25.366640090942383 30.417226791381836 C 16.0631103515625 10.741369247436523 7.5434980392456055 40.4632568359375 18.18749237060547 103.95867919921875 C -1.7692984342575073 42.056880950927734 60.486663818359375 29.929763793945312 29.247493743896484 109.4000015258789 C -12.937966346740723 105.91029357910156 12.619539260864258 -5.2795796394348145 26.913515090942383 70.57833099365234" stroke-width="2.0" fill="rgb(96, 110, 190)" opacity="0.118207134"/>
    <path d="M 144.8386688232422 82.03875732421875 C 105.182861328125 117.01332092285156 199.99197387695312 101.50642395019531 160.1534881591797 81.34294891357422 C 180.29916381835938 132.99827575683594 206.98165893554688 116.8948745727539 185.3822479248047 152.70213317871094 C 192.6358184814453 115.97631072998047 203.59552001953125 67.55162811279297 180.3756103515625 105.0325698852539 C 189.84149169921875 69.92579650878906 192.7821044921875 131.6663818359375 194.0434112548828 95.92342376708984 C 162.47012329101562 142.66603088378906 217.63772583007812 143.071533203125 144.8386688232422 82.03875732421875" stroke-width="2.0" fill="rgb(26, 55, 145)" opacity="0.51185054"/>
    <path d="M 95.14567565917969 120.28666687011719 C 84.8352279663086 105.42378997802734 84.18737030029297 103.02320861816406 89.02729797363281 108.89997863769531 C 92.63690948486328 106.93474578857422 89.41896057128906 91.20330810546875 91.53736114501953 102.40565490722656 C 72.95012664794922 100.88176727294922 91.6712646484375 107.57460021972656 105.19982147216797 121.55760955810547 C 83.24897003173828 106.53372192382812 88.20499420166016 109.43839263916016 95.14567565917969 120.28666687011719" stroke-width="2.0" fill="rgb(199, 42, 175)" opacity="0.64162344"/>
    <path d="M 97.9078369140625 71.42733764648438 C 115.19717407226562 38.012916564941406 140.0135955810547 76.8360824584961 139.75184631347656 40.71562957763672 C 135.0929718017578 49.47856903076172 143.59217834472656 53.029212951660156 146.32815551757812 41.53853225708008 C 126.17528533935547 62.556392669677734 160.62454223632812 47.21577835083008 140.9173126220703 60.10343933105469 C 147.68038940429688 61.3489990234375 217.05487060546875 82.98352813720703 97.9078369140625 71.42733764648438" stroke-width="2.0" fill="rgb(62, 217, 114)" opacity="0.40523702"/>
    <path d="M 89.4292221069336 58.0793342590332 C 72.57247924804688 52.31165313720703 31.80255699157715 32.59877395629883 85.23851776123047 52.05210876464844 C 89.51466369628906 91.81828308105469 60.86014175415039 71.72284698486328 94.2293472290039 57.81632995605469 C 56.4660758972168 93.68953704833984 70.6466064453125 78.26416778564453 77.47814178466797 33.9704704284668 C 80.00582885742188 87.84138488769531 99.3400650024414 57.01976776123047 106.18524169921875 74.05618286132812 C 54.08444595336914 35.32439041137695 73.26216888427734 72.98363494873047 89.4292221069336 58.0793342590332" stroke-width="2.0" fill="rgb(196, 133, 236)" opacity="0.76516753"/>
    <path d="M 231.373046875 83.38714599609375 C 228.8286590576172 92.47709655761719 228.5287322998047 93.81559753417969 234.726806640625 95.38965606689453 C 220.97183227539062 99.25836944580078 225.39535522460938 101.59199523925781 237.76588439941406 96.46112823486328 C 225.1955108642578 96.55530548095703 224.564208984375 96.14574432373047 231.373046875 83.38714599609375" stroke-width="2.0" fill="rgb(122, 136, 227)" opacity="0.5387461"/>
    <path d="M 64.7552261352539 47.85678482055664 C 63.23725128173828 83.11519622802734 42.62174606323242 31.88380241394043 94.60487365722656 68.1406478881836 C 122.52500915527344 109.52135467529297 99.27530670166016 89.02693176269531 94.4568862915039 75.29460906982422 C 99.58644104003906 82.8908462524414 93.5128402709961 41.06576156616211 54.93174362182617 73.52999877929688 C 82.75990295410156 20.760265350341797 120.21659851074219 85.19478607177734 49.3551025390625 67.15093231201172 C 52.07661819458008 61.35993576049805 103.64433288574219 67.28620147705078 64.7552261352539 47.85678482055664" stroke-width="2.0" fill="rgb(218, 27, 210)" opacity="0.027719526"/>
    <path d="M 164.05563354492188 46.201908111572266 C 130.97100830078125 50.74638366699219 141.928955078125 39.533267974853516 145.38507080078125 42.84397506713867 C 141.22576904296875 54.16499328613281 146.42405700683594 45.9826774597168 105.93417358398438 7.996826171875 C 138.3507537841797 35.039588928222656 127.5364990234375 53.94944763183594 164.05563354492188 46.201908111572266" stroke-width="2.0" fill="rgb(107, 160, 241)" opacity="0.89632404"/>
    <path d="M 218.31117248535156 -5.847884654998779 C 211.43838500976562 -9.367463111877441 207.93148803710938 -12.441462516784668 209.53955078125 -11.443894386291504 C 208.00982666015625 -11.11490249633789 209.26292419433594 -11.386839866638184 203.87094116210938 -11.276254653930664 C 205.94801330566406 -9.553107261657715 209.4403839111328 -11.502486228942871 218.31117248535156 -5.847884654998779" stroke-width="2.0" fill="rgb(8, 167, 57)" opacity="0.46289188"/>
    <path d="M 79.90562438964844 60.94112777709961 C 81.04166412353516 40.88551330566406 73.99800109863281 7.926733016967773 82.21712493896484 37.80672836303711 C 65.20441436767578 91.19490814208984 65.3003158569336 93.91336059570312 79.08367156982422 85.5006103515625 C 15.23356819152832 89.17623138427734 54.08611297607422 97.05708312988281 71.4375991821289 78.28276062011719 C 21.557029724121094 75.8357162475586 66.89848327636719 53.32647705078125 49.319725036621094 67.62445068359375 C 53.33788299560547 81.54469299316406 67.08426666259766 73.99626922607422 79.90562438964844 60.94112777709961" stroke-width="2.0" fill="rgb(92, 139, 45)" opacity="0.78676665"/>
    <path d="M 173.53565979003906 64.0112533569336 C 250.32510375976562 62.1124153137207 229.36221313476562 80.36148071289062 232.87460327148438 43.308292388916016 C 171.00750732421875 18.22943687438965 130.24818420410156 62.318077087402344 171.16685485839844 78.88682556152344 C 159.26742553710938 29.14072608947754 173.57308959960938 35.51331329345703 154.88182067871094 57.7967643737793 C 169.14442443847656 45.197601318359375 148.24961853027344 12.241241455078125 177.02748107910156 38.579345703125 C 136.1598358154297 63.233489990234375 178.8617706298828 38.96327209472656 173.53565979003906 64.0112533569336" stroke-width="2.0" fill="rgb(143, 180, 130)" opacity="0.4610639"/>
    <path d="M 124.87769317626953 221.83326721191406 C 79.55000305175781 158.0648651123047 76.91193389892578 253.17031860351562 100.34028625488281 186.4742431640625 C 112.1559829711914 187.05047607421875 115.33840942382812 201.92970275878906 70.00538635253906 194.3876190185547 C 71.33287811279297 174.4093780517578 104.81971740722656 193.7997589111328 122.22479248046875 201.0438995361328 C 145.0557861328125 197.96493530273438 105.99263000488281 164.48341369628906 100.21431732177734 194.9496612548828 C 89.80294036865234 159.37669372558594 112.67713928222656 173.522705078125 124.87769317626953 221.83326721191406" stroke-width="2.0" fill="rgb(182, 183, 168)" opacity="0.20040727"/>
    <path d="M 111.18296813964844 212.52053833007812 C 93.87645721435547 219.1905059814453 152.5411376953125 222.5836181640625 39.494571685791016 222.13250732421875 C 124.34494018554688 263.4097595214844 108.6888198852539 232.7107696533203 90.52513885498047 203.16571044921875 C 77.00582122802734 233.04017639160156 96.09639739990234 221.36521911621094 69.36316680908203 182.5264892578125 C 74.40261840820312 203.64492797851562 89.26028442382812 191.287353515625 79.02639770507812 197.28317260742188 C 79.18580627441406 166.56051635742188 62.99281692504883 214.43601989746094 111.18296813964844 212.52053833007812" stroke-width="2.0" fill="rgb(0, 176, 236)" opacity="0.67592335"/>
    <path d="M 12.705076217651367 170.15208435058594 C 35.98344802856445 195.8875732421875 -6.592394828796387 192.15135192871094 -9.976181030273438 145.81210327148438 C 5.15784215927124 184.0948028564453 28.133527755737305 189.97715759277344 19.25334358215332 167.6422576904297 C 25.02555274963379 203.62620544433594 39.82646942138672 180.92166137695312 17.76873779296875 166.725341796875 C 84.79423522949219 201.28073120117188 5.5800628662109375 211.16482543945312 12.705076217651367 170.15208435058594" stroke-width="2.0" fill="rgb(14, 163, 78)" opacity="0.4244109"/>
    <path d="M 21.925718307495117 216.9571533203125 C -6.6702446937561035 149.90196228027344 60.47426223754883 216.32119750976562 48.77876281738281 180.59901428222656 C 51.83404541015625 239.00694274902344 69.26974487304688 163.32733154296875 42.04715347290039 200.24298095703125 C 67.10820770263672 183.76649475097656 85.70670318603516 178.90916442871094 21.925718307495117 216.9571533203125" stroke-width="2.0" fill="rgb(226, 185, 27)" opacity="0.8584772"/>
    <path d="M 140.89271545410156 194.0255584716797 C 156.6874542236328 184.00062561035156 141.92742919921875 155.83509826660156 179.73927307128906 176.80172729492188 C 148.55462646484375 192.20152282714844 165.44271850585938 166.57591247558594 184.2686767578125 200.01144409179688 C 154.4689178466797 171.90257263183594 207.38265991210938 197.1915283203125 189.0507354736328 185.1710968017578 C 184.38726806640625 151.49972534179688 170.56918334960938 196.74200439453125 170.40565490722656 202.58709716796875 C 188.85797119140625 167.58079528808594 170.9000701904297 165.72259521484375 140.89271545410156 194.0255584716797" stroke-width="2.0" fill="rgb(139, 77, 245)" opacity="0.44207317"/>
    <path d="M 99.85319519042969 199.35877990722656 C 104.667724609375 168.2393798828125 108.96026611328125 190.76576232910156 106.71781921386719 197.58358764648438 C 71.50115966796875 183.8719940185547 137.59800720214844 201.3092803955078 66.68458557128906 164.05702209472656 C 118.29841613769531 153.67698669433594 85.3558120727539 163.79763793945312 123.16986846923828 191.35028076171875 C 134.0328826904297 202.03680419921875 118.30912780761719 160.81394958496094 99.85319519042969 199.35877990722656" stroke-width="2.0" fill="rgb(227, 100, 170)" opacity="0.37003437"/>
    <path d="M 105.95613098144531 5.423309803009033 C 142.36495971679688 37.511329650878906 57.72230911254883 23.602214813232422 80.02143859863281 -13.846752166748047 C 156.9348602294922 3.223769187927246 122.88286590576172 20.20062255859375 103.12178039550781 -2.759556770324707 C 62.67205047607422 39.00513458251953 158.7259979248047 -11.356999397277832 105.95613098144531 5.423309803009033" stroke-width="2.0" fill="rgb(185, 140, 0)" opacity="0.06495911"/>
    <path d="M 15.230320930480957 132.0052032470703 C -28.2197208404541 126.69467163085938 -25.224668502807617 152.3029327392578 12.496577262878418 147.26080322265625 C 43.2066764831543 155.22940063476562 63.13153839111328 172.2159881591797 21.964927673339844 159.66282653808594 C 37.426971435546875 154.51844787597656 11.26152229309082 130.13917541503906 -13.555123329162598 143.711181640625 C 26.696796417236328 145.9095458984375 -24.6556339263916 138.9339141845703 35.095951080322266 148.94171142578125 C 49.4420166015625 184.30506896972656 43.8055419921875 139.70556640625 15.230320930480957 132.0052032470703" stroke-width="2.0" fill="rgb(203, 30, 220)" opacity="0.7796899"/>
    <path d="M 81.46221160888672 72.79119110107422 C 60.45117950439453 79.61630249023438 91.14771270751953 56.289974212646484 100.85710906982422 73.0495834350586 C 40.13518142700195 64.7519302368164 85.59284973144531 65.30021667480469 105.64097595214844 65.72713470458984 C 62.98303985595703 60.43069076538086 64.97976684570312 74.77153015136719 94.59516906738281 84.19013214111328 C 39.32960510253906 86.8433609008789 30.02479362487793 75.91783142089844 69.70051574707031 92.6037368774414 C 123.49925994873047 14.19316577911377 109.5035400390625 118.52832794189453 81.46221160888672 72.79119110107422" stroke-width="2.0" fill="rgb(75, 94, 75)" opacity="0.30546314"/>
    <path d="M 59.64012908935547 97.51839447021484 C 69.31761932373047 127.44441223144531 71.20845031738281 94.71810913085938 49.22946548461914 92.21873474121094 C 67.64608764648438 120.2210693359375 56.17683792114258 111.0895767211914 48.21989822387695 139.24925231933594 C 65.29081726074219 105.29306030273438 78.1240463256836 127.7777328491211 90.21188354492188 126.89570617675781 C 82.27197265625 100.92142486572266 85.22628021240234 132.2574462890625 59.64012908935547 97.51839447021484" stroke-width="2.0" fill="rgb(177, 6, 2)" opacity="0.36180988"/>
    <path d="M 192.94711303710938 185.89334106445312 C 206.47882080078125 210.73512268066406 191.0402374267578 202.5573272705078 191.12246704101562 219.20358276367188 C 173.42591857910156 202.3204803466797 226.1363525390625 171.63198852539062 208.73165893554688 210.86500549316406 C 190.16537475585938 181.1449737548828 260.6039733886719 211.25103759765625 192.94711303710938 185.89334106445312" stroke-width="2.0" fill="rgb(42, 227, 252)" opacity="0.45301515"/>
    <path d="M 141.80667114257812 -9.405346870422363 C 125.75093841552734 9.818081855773926 144.37657165527344 11.65045166015625 135.2990264892578 -3.640005111694336 C 160.90911865234375 3.0481584072113037 155.59133911132812 -12.192599296569824 157.81227111816406 -4.000200271606445 C 159.4691162109375 0.6366585493087769 167.4770965576172 -4.648794651031494 158.5603790283203 -8.938460350036621 C 155.60850524902344 0.46544307470321655 156.43759155273438 0.8621745109558105 154.91835021972656 -2.8855063915252686 C 157.4168243408203 0.6607052683830261 155.67630004882812 -2.254088878631592 141.80667114257812 -9.405346870422363" stroke-width="2.0" fill="rgb(26, 130, 33)" opacity="0.7408594"/>
    <path d="M 136.2841796875 151.88340759277344 C 115.37109375 142.8602752685547 101.39051055908203 139.29632568359375 125.47509002685547 132.9556427001953 C 118.59540557861328 149.9256591796875 109.14505767822266 135.12948608398438 137.36959838867188 153.57289123535156 C 130.8021697998047 129.55873107910156 126.13082885742188 107.1690902709961 142.10057067871094 170.02215576171875 C 122.67027282714844 171.76304626464844 111.72339630126953 199.57395935058594 104.9740982055664 156.63880920410156 C 119.30914306640625 125.64330291748047 84.85210418701172 130.1337432861328 136.2841796875 151.88340759277344" stroke-width="2.0" fill="rgb(67, 136, 123)" opacity="0.41733664"/>
    <path d="M 229.50869750976562 126.1073226928711 C 230.86056518554688 137.5383758544922 232.23643493652344 131.99720764160156 234.92279052734375 125.59911346435547 C 233.51808166503906 126.47369384765625 238.44483947753906 126.12582397460938 236.2201690673828 125.67607879638672 C 229.70437622070312 124.18431854248047 230.0984649658203 122.54474639892578 229.50869750976562 126.1073226928711" stroke-width="2.0" fill="rgb(81, 239, 161)" opacity="0.713506"/>
    <path d="M 105.07308959960938 224.8003387451172 C 134.25038146972656 231.3611602783203 136.1403045654297 232.53150939941406 137.9296875 223.19480895996094 C 136.2469482421875 231.03900146484375 138.21771240234375 226.4606170654297 130.46578979492188 227.8334503173828 C 144.11212158203125 224.7100067138672 161.60726928710938 224.83676147460938 105.07308959960938 224.8003387451172" stroke-width="2.0" fill="rgb(49, 39, 73)" opacity="0.17917153"/>
    <path d="M 87.97650146484375 55.701332092285156 C 98.99359130859375 59.16990280151367 86.7726821899414 78.06442260742188 79.0283432006836 23.933969497680664 C 63.94591522216797 7.972960948944092 89.65483093261719 29.213611602783203 75.57623291015625 45.23582077026367 C 69.7355728149414 70.53813934326172 73.32071685791016 77.64495086669922 87.97650146484375 55.701332092285156" stroke-width="2.0" fill="rgb(206, 118, 173)" opacity="0.5951917"/>
    <path d="M 66.35575103759766 110.91645050048828 C 53.203582763671875 113.1632308959961 42.06893539428711 113.44647216796875 46.591636657714844 146.76730346679688 C 80.12751007080078 107.63427734375 32.466773986816406 155.76478576660156 76.73551177978516 177.4055633544922 C 30.964370727539062 171.58348083496094 42.85414123535156 94.2134017944336 66.35575103759766 110.91645050048828" stroke-width="2.0" fill="rgb(35, 46, 53)" opacity="0.37653857"/>
    <path d="M 108.51850891113281 141.45826721191406 C 105.07615661621094 105.50027465820312 60.4715690612793 97.48018646240234 91.60658264160156 101.84442138671875 C 81.71849822998047 111.93161010742188 86.20364379882812 107.3902816772461 115.73817443847656 117.75949096679688 C 111.30937957763672 119.61883544921875 113.64959716796875 125.23992919921875 106.73197937011719 125.3311767578125 C 125.64468383789062 113.74686431884766 142.97320556640625 131.20474243164062 130.68789672851562 126.58966064453125 C 100.26544952392578 157.81211853027344 129.67770385742188 144.53335571289062 108.51850891113281 141.45826721191406" stroke-width="2.0" fill="rgb(30, 157, 208)" opacity="0.44285768"/>
    <path d="M 114.82379913330078 136.6611328125 C 119.92717742919922 144.10726928710938 125.726318359375 134.95245361328125 118.33733367919922 139.8516387939453 C 124.68535614013672 135.958251953125 130.03927612304688 161.95953369140625 113.26596069335938 131.50404357910156 C 123.1637954711914 140.75379943847656 129.12368774414062 153.26576232910156 114.82379913330078 136.6611328125" stroke-width="2.0" fill="rgb(39, 65, 213)" opacity="0.78208375"/>
    <path d="M 197.4382781982422 146.2702178955078 C 222.39959716796875 209.1604766845703 191.31114196777344 151.87728881835938 199.84173583984375 191.1603546142578 C 149.04502868652344 177.12191772460938 188.27178955078125 128.2972412109375 233.6060333251953 148.22117614746094 C 236.8282470703125 155.26280212402344 251.1884307861328 139.88363647460938 254.3897247314453 168.0474395751953 C 247.68479919433594 160.03048706054688 232.11729431152344 142.56956481933594 197.4382781982422 146.2702178955078" stroke-width="2.0" fill="rgb(210, 27, 191)" opacity="0.40001512"/>
    <path d="M 229.40518188476562 71.06045532226562 C 225.9097900390625 58.80215835571289 223.4298858642578 69.12663269042969 244.8429412841797 79.38716888427734 C 220.47286987304688 89.58900451660156 229.4289093017578 93.99878692626953 244.7525177001953 75.24378204345703 C 226.0072479248047 66.35413360595703 218.27784729003906 51.51335525512695 229.40518188476562 71.06045532226562" stroke-width="2.0" fill="rgb(115, 22, 149)" opacity="0.7479627"/>
    <path d="M 234.2112579345703 46.47650146484375 C 225.87884521484375 56.80770492553711 221.15509033203125 51.955684661865234 227.76800537109375 53.56575393676758 C 230.09243774414062 52.28561782836914 226.88050842285156 45.430023193359375 224.3530731201172 53.0199089050293 C 232.69357299804688 47.92616653442383 224.4404296875 41.7662239074707 227.4404296875 63.44541931152344 C 223.08078002929688 52.872161865234375 229.00506591796875 51.057735443115234 234.2112579345703 46.47650146484375" stroke-width="2.0" fill="rgb(216, 184, 111)" opacity="0.62530416"/>
    <path d="M 72.97740936279297 161.359130859375 C 7.3461995124816895 160.3343505859375 42.90547561645508 180.6903533935547 73.23744201660156 138.86331176757812 C 49.84852600097656 140.7595672607422 51.70094680786133 97.74996185302734 26.854793548583984 133.9104461669922 C 60.62959289550781 185.54103088378906 51.674224853515625 131.80078125 72.97740936279297 161.359130859375" stroke-width="2.0" fill="rgb(159, 245, 6)" opacity="0.24944207"/>
    <path d="M 3.4428699016571045 -2.5625197887420654 C -1.206533432006836 -10.213040351867676 -0.23737840354442596 -8.016252517700195 -20.599275588989258 6.427786827087402 C -8.427961349487305 44.364646911621094 6.901024341583252 21.308692932128906 -0.11265073716640472 -11.11410903930664 C -7.947447299957275 -14.123570442199707 3.4394495487213135 -10.67017650604248 -5.463232040405273 14.951626777648926 C 13.624123573303223 8.435857772827148 13.171754837036133 28.4736385345459 12.243387222290039 -11.947772026062012 C 1.7825558185577393 -34.00446701049805 -4.301297187805176 -7.810670852661133 3.4428699016571045 -2.5625197887420654" stroke-width="2.0" fill="rgb(164, 55, 164)" opacity="0.9419845"/>
    <path d="M 105.48096466064453 36.97555923461914 C 44.94538497924805 15.575736045837402 30.825767517089844 81.3241195678711 59.037681579589844 32.42948532104492 C 60.97019577026367 67.76802825927734 105.8161392211914 57.84601593017578 60.456485748291016 46.47840881347656 C 39.114959716796875 72.15615844726562 28.64776611328125 17.921924591064453 105.48096466064453 36.97555923461914" stroke-width="2.0" fill="rgb(114, 191, 183)" opacity="0.117080286"/>
    <path d="M 228.82032775878906 114.1759033203125 C 225.58343505859375 121.36248016357422 229.2707061767578 132.93582153320312 237.4848175048828 123.9220962524414 C 230.10491943359375 128.93186950683594 230.3869171142578 133.85006713867188 228.7025146484375 122.92286682128906 C 236.84580993652344 120.53673553466797 229.73687744140625 129.53179931640625 228.21429443359375 121.71629333496094 C 226.42001342773438 125.0691146850586 227.76950073242188 125.77010345458984 228.82032775878906 114.1759033203125" stroke-width="2.0" fill="rgb(102, 101, 112)" opacity="0.75713855"/>
    <path d="M 56.90348434448242 72.73443603515625 C 108.98704528808594 166.44705200195312 113.55853271484375 59.5319709777832 107.85284423828125 141.40513610839844 C 106.23685455322266 125.82610321044922 81.28187561035156 120.3063735961914 50.389251708984375 94.4439926147461 C 126.08514404296875 108.35431671142578 104.0774917602539 48.21294403076172 56.90348434448242 72.73443603515625" stroke-width="2.0" fill="rgb(245, 83, 99)" opacity="0.12794687"/>
    <path d="M 209.08831787109375 209.04173278808594 C 263.7789001464844 147.25357055664062 223.7157440185547 153.80416870117188 213.1885986328125 161.45948791503906 C 240.8181915283203 219.140625 206.74102783203125 210.39720153808594 198.0609130859375 172.69114685058594 C 230.1865234375 200.71713256835938 215.33448791503906 230.5689697265625 215.6544189453125 195.26304626464844 C 170.8502197265625 171.89422607421875 217.500732421875 167.93740844726562 209.08831787109375 209.04173278808594" stroke-width="2.0" fill="rgb(183, 190, 36)" opacity="0.72823095"/>
    <path d="M 194.82215881347656 161.1342010498047 C 195.86688232421875 200.1600341796875 149.90025329589844 178.39207458496094 163.31326293945312 131.9151153564453 C 147.0595245361328 140.39796447753906 186.8934783935547 146.75299072265625 152.9205322265625 123.64318084716797 C 192.51788330078125 132.77734375 181.16513061523438 150.2964324951172 151.1089630126953 120.96187591552734 C 171.44659423828125 102.72759246826172 181.55859375 87.75140380859375 194.82215881347656 161.1342010498047" stroke-width="2.0" fill="rgb(225, 251, 26)" opacity="0.83673483"/>
    <path d="M 215.51312255859375 202.51153564453125 C 238.1771697998047 176.08792114257812 177.43605041503906 137.17967224121094 240.39443969726562 178.61383056640625 C 218.46714782714844 266.91058349609375 236.19351196289062 220.35067749023438 151.72093200683594 223.6442413330078 C 172.08709716796875 162.89002990722656 190.2451934814453 194.88372802734375 221.43246459960938 192.64434814453125 C 209.98719787597656 216.23239135742188 224.0084991455078 194.42823791503906 215.51312255859375 202.51153564453125" stroke-width="2.0" fill="rgb(63, 245, 19)" opacity="0.42028475"/>
    <path d="M 94.07603454589844 180.38388061523438 C 84.77207946777344 175.09413146972656 73.89380645751953 162.68389892578125 97.37454986572266 176.6884307861328 C 92.6370620727539 149.41627502441406 78.50924682617188 174.10830688476562 103.74663543701172 173.80950927734375 C 77.76251983642578 165.43392944335938 86.67597198486328 150.74444580078125 94.07603454589844 180.38388061523438" stroke-width="2.0" fill="rgb(95, 103, 10)" opacity="0.7856986"/>
    <path d="M 96.64496612548828 168.94801330566406 C 112.80152893066406 194.41419982910156 83.19146728515625 167.79881286621094 82.2125244140625 192.4311065673828 C 88.05335998535156 173.53074645996094 70.68475341796875 190.10641479492188 72.31378173828125 154.72927856445312 C 71.97695922851562 182.17698669433594 49.62234878540039 155.8673553466797 84.7882308959961 138.8617401123047 C 70.91477966308594 137.48675537109375 77.26024627685547 178.2793731689453 86.27384948730469 182.96629333496094 C 63.968894958496094 147.3286590576172 118.46978759765625 179.66041564941406 96.64496612548828 168.94801330566406" stroke-width="2.0" fill="rgb(241, 106, 171)" opacity="0.8020123"/>
    <path d="M 209.65660095214844 37.15446853637695 C 211.5520782470703 36.632286071777344 219.87847900390625 39.674896240234375 205.0812225341797 36.79853057861328 C 217.56809997558594 38.23002624511719 216.92379760742188 39.15211486816406 211.7535858154297 38.81589889526367 C 223.95558166503906 40.18880081176758 211.53009033203125 42.65067672729492 219.04168701171875 39.39580535888672 C 217.43092346191406 41.72802734375 210.60244750976562 34.776206970214844 209.65660095214844 37.15446853637695" stroke-width="2.0" fill="rgb(57, 180, 53)" opacity="0.9987796"/>
    <path d="M 23.86149024963379 -1.6035478115081787 C 17.01798439025879 20.844585418701172 25.1048526763916 -2.879817008972168 45.46199035644531 7.899038791656494 C 90.98593139648438 24.753435134887695 59.34962844848633 23.499176025390625 69.02545928955078 -5.6691131591796875 C 5.478569507598877 -11.974421501159668 -13.034344673156738 -38.77663040161133 -1.0541070699691772 27.647415161132812 C 23.250211715698242 -2.3467681407928467 27.226640701293945 19.922399520874023 17.853025436401367 -12.735706329345703 C 27.34318733215332 -0.5301953554153442 11.12375259399414 3.9984283447265625 23.86149024963379 -1.6035478115081787" stroke-width="2.0" fill="rgb(82, 242, 176)" opacity="0.8093002"/>
    <path d="M 151.94491577148438 134.10829162597656 C 125.75318908691406 140.9723358154297 157.53286743164062 175.17352294921875 173.7828826904297 131.84169006347656 C 172.1462860107422 173.54217529296875 128.08773803710938 161.9971466064453 125.01221466064453 150.64842224121094 C 95.95877075195312 166.9738006591797 145.08697509765625 159.42803955078125 149.69595336914062 142.7968292236328 C 150.47195434570312 164.4295654296875 112.5517349243164 137.4620819091797 151.94491577148438 134.10829162597656" stroke-width="2.0" fill="rgb(185, 9, 110)" opacity="0.075994745"/>
    <path d="M 140.6947021484375 128.1085662841797 C 197.36032104492188 136.0635223388672 152.6534881591797 140.19602966308594 160.3640899658203 168.02206420898438 C 129.73426818847656 191.90310668945312 131.24180603027344 170.46983337402344 65.33515930175781 145.86514282226562 C 107.58309173583984 181.31202697753906 156.76007080078125 174.42445373535156 111.63758087158203 174.86526489257812 C 46.39480972290039 59.81111145019531 175.13075256347656 25.047103881835938 140.6947021484375 128.1085662841797" stroke-width="2.0" fill="rgb(174, 219, 175)" opacity="0.21887353"/>
    <path d="M 48.857147216796875 147.6022491455078 C 57.499454498291016 117.12073516845703 73.55194854736328 121.6887435913086 88.7480697631836 138.76454162597656 C 80.6905517578125 142.95140075683594 68.69778442382812 143.7992401123047 62.274044036865234 170.773681640625 C 84.07275390625 179.19427490234375 51.86375045776367 163.84381103515625 87.78005981445312 144.75018310546875 C 75.15168762207031 137.10040283203125 65.34671783447266 154.5386505126953 80.10748291015625 150.9548797607422 C 31.41785430908203 167.30795288085938 66.39726257324219 136.38723754882812 48.857147216796875 147.6022491455078" stroke-width="2.0" fill="rgb(221, 135, 59)" opacity="0.5418199"/>
    <path d="M 121.7752456665039 169.75897216796875 C 153.29339599609375 141.02268981933594 167.33619689941406 140.2311248779297 145.6083526611328 215.56076049804688 C 124.83373260498047 194.22813415527344 122.7285385131836 121.72348022460938 211.43284606933594 165.99595642089844 C 126.13017272949219 195.17276000976562 108.88154602050781 169.8556365966797 153.37159729003906 119.2945785522461 C 121.95600128173828 138.2490234375 107.86865234375 202.46359252929688 121.7752456665039 169.75897216796875" stroke-width="2.0" fill="rgb(19, 111, 37)" opacity="0.019566696"/>
    <path d="M 210.9415283203125 199.95809936523438 C 145.56358337402344 233.6046142578125 162.7373046875 249.26119995117188 202.30874633789062 223.67344665527344 C 175.2104034423828 186.14723205566406 216.5863800048828 171.84747314453125 209.11106872558594 191.96322631835938 C 203.1658477783203 217.11886596679688 190.73297119140625 159.48008728027344 205.67660522460938 226.8435821533203 C 243.03012084960938 234.95327758789062 198.16416931152344 205.7173309326172 210.9415283203125 199.95809936523438" stroke-width="2.0" fill="rgb(157, 136, 223)" opacity="0.035245378"/>
    <path d="M 51.534732818603516 51.16321563720703 C 92.39824676513672 0.2607138156890869 55.309715270996094 40.5380859375 110.3674087524414 61.29745101928711 C 106.5259780883789 64.0912094116211 95.74198150634766 50.69076156616211 70.16136932373047 85.01008605957031 C 48.734554290771484 97.16375732421875 103.05243682861328 2.648484945297241 51.534732818603516 51.16321563720703" stroke-width="2.0" fill="rgb(246, 214, 64)" opacity="0.4650164"/>
    <path d="M 100.16915130615234 87.54405212402344 C 57.039302825927734 87.54301452636719 101.97644805908203 102.97930908203125 105.88213348388672 61.9996337890625 C 90.04722595214844 63.65156555175781 50.990570068359375 80.10372924804688 48.28916549682617 89.38776397705078 C 120.71749877929688 101.68619537353516 112.26708984375 70.786376953125 78.52625274658203 44.74357223510742 C 43.5682258605957 111.0482406616211 -12.164999961853027 81.62151336669922 75.46558380126953 66.63581848144531 C 90.46438598632812 92.16490173339844 111.7214584350586 65.12623596191406 100.16915130615234 87.54405212402344" stroke-width="2.0" fill="rgb(249, 71, 253)" opacity="0.1077689"/>
    <path d="M 133.4071044921875 214.57765197753906 C 173.7375030517578 173.48049926757812 135.93978881835938 219.80320739746094 130.8754119873047 258.4037170410156 C 81.11843872070312 227.6697235107422 94.39254760742188 232.2055206298828 105.73870086669922 229.76255798339844 C 114.67333221435547 226.66761779785156 111.79345703125 221.83514404296875 96.60062408447266 234.77455139160156 C 101.64266204833984 231.4380645751953 78.28715515136719 235.10670471191406 57.74278259277344 218.17166137695312 C 39.727596282958984 143.75401306152344 45.57658004760742 176.70816040039062 133.4071044921875 214.57765197753906" stroke-width="2.0" fill="rgb(244, 195, 17)" opacity="0.028478658"/>
    <path d="M 98.65442657470703 178.0498046875 C 172.05294799804688 212.56903076171875 175.6232147216797 163.55117797851562 89.19800567626953 202.18052673339844 C 124.72297668457031 137.0339813232422 116.52608489990234 169.1662139892578 80.45709228515625 201.6540985107422 C 25.504079818725586 130.42051696777344 112.27796173095703 122.63784790039062 114.79122924804688 149.56236267089844 C 126.24728393554688 197.9009246826172 140.44407653808594 134.99876403808594 98.65442657470703 178.0498046875" stroke-width="2.0" fill="rgb(85, 92, 205)" opacity="0.014003041"/>
    <path d="M 47.517581939697266 -22.105236053466797 C -7.8052544593811035 20.668840408325195 22.476913452148438 0.1556965410709381 45.868507385253906 5.808574676513672 C 50.032230377197266 2.100382089614868 71.94009399414062 23.2742862701416 75.67813873291016 14.373082160949707 C 74.87904357910156 14.088729858398438 87.95181274414062 10.498872756958008 74.17036437988281 20.75641632080078 C 60.71294403076172 9.425568580627441 76.77813720703125 21.56756019592285 86.51573944091797 18.352468490600586 C 80.6612777709961 23.991310119628906 100.6313247680664 -24.76505470275879 47.517581939697266 -22.105236053466797" stroke-width="2.0" fill="rgb(83, 251, 113)" opacity="0.28298172"/>
    <path d="M 190.2335662841797 192.01315307617188 C 194.6733856201172 177.260498046875 191.55816650390625 186.26353454589844 212.98577880859375 206.73374938964844 C 200.9744110107422 192.4303436279297 183.62965393066406 185.560546875 191.90921020507812 187.5851287841797 C 177.11859130859375 210.6351318359375 205.42616271972656 184.6149444580078 190.2335662841797 192.01315307617188" stroke-width="2.0" fill="rgb(120, 104, 224)" opacity="0.6423443"/>
    <path d="M 187.3518524169922 126.5087890625 C 144.88148498535156 120.5796890258789 178.9298858642578 127.40463256835938 190.5629425048828 113.85844421386719 C 148.29200744628906 122.5197982788086 143.71002197265625 115.41320037841797 190.42437744140625 123.65763854980469 C 142.43853759765625 94.56739044189453 172.79051208496094 105.33253479003906 187.3518524169922 126.5087890625" stroke-width="2.0" fill="rgb(41, 119, 10)" opacity="0.8700108"/>
    <path d="M 61.62500762939453 78.21678924560547 C 140.8981170654297 57.91523742675781 102.91991424560547 69.39639282226562 76.30667114257812 41.78297424316406 C 80.76909637451172 62.43807601928711 76.1224365234375 42.29658889770508 78.05914306640625 25.41936683654785 C 53.979148864746094 1.578317642211914 45.987953186035156 22.504709243774414 90.58914184570312 4.357741355895996 C 109.65877532958984 30.615795135498047 59.13752365112305 16.11228370666504 88.20909118652344 53.10002136230469 C 48.31254959106445 -4.244971752166748 85.30549621582031 37.09245300292969 61.62500762939453 78.21678924560547" stroke-width="2.0" fill="rgb(215, 104, 44)" opacity="0.35092202"/>
    <path d="M 88.40130615234375 72.41792297363281 C 65.9443588256836 74.76277160644531 82.47927856445312 106.49906921386719 104.51226806640625 85.7833023071289 C 73.57025909423828 94.3423843383789 72.31725311279297 70.25917053222656 88.7695541381836 68.87264251708984 C 124.81331634521484 53.7249641418457 119.17432403564453 75.59175872802734 69.67269897460938 87.07671356201172 C 41.211578369140625 89.07950592041016 37.26594924926758 78.48822021484375 80.13929748535156 91.58797454833984 C 121.81848907470703 78.66294860839844 97.13323211669922 78.93142700195312 88.40130615234375 72.41792297363281" stroke-width="2.0" fill="rgb(177, 41, 12)" opacity="0.83498996"/>
    <path d="M 27.55880355834961 64.55879211425781 C 15.176397323608398 -0.5406022071838379 73.10987854003906 37.902618408203125 57.25815963745117 30.09823226928711 C 36.928646087646484 10.09083080291748 -0.5131717324256897 29.31077766418457 54.68277359008789 17.314559936523438 C 15.908287048339844 53.78383255004883 43.11922836303711 4.063109874725342 65.72640991210938 25.162952423095703 C 33.56634521484375 19.161935806274414 54.93359375 5.618325233459473 27.55880355834961 64.55879211425781" stroke-width="2.0" fill="rgb(118, 207, 172)" opacity="0.36018747"/>
    <path d="M 180.67417907714844 109.30563354492188 C 174.4833526611328 122.30049133300781 128.89149475097656 76.28907012939453 149.12440490722656 125.89346313476562 C 220.88217163085938 108.86784362792969 148.46478271484375 118.9104995727539 187.75352478027344 109.65373229980469 C 172.47010803222656 118.50433349609375 173.74559020996094 108.20137786865234 198.44871520996094 127.09198760986328 C 174.0573272705078 109.42261505126953 171.09820556640625 111.7083511352539 180.67417907714844 109.30563354492188" stroke-width="2.0" fill="rgb(23, 232, 6)" opacity="0.83162814"/>
    <path d="M 32.5650634765625 49.05915069580078 C 30.818302154541016 25.02555274963379 55.320457458496094 34.789058685302734 59.33462142944336 26.443822860717773 C 65.27323913574219 24.940654754638672 6.453023433685303 51.19703674316406 65.60820007324219 23.28082275390625 C 72.56908416748047 27.164148330688477 56.607460021972656 10.24862289428711 19.651723861694336 20.65764617919922 C 49.67506790161133 30.190780639648438 10.272751808166504 17.86272430419922 32.5650634765625 49.05915069580078" stroke-width="2.0" fill="rgb(150, 87, 130)" opacity="0.46689582"/>
    <path d="M 16.664335250854492 71.92356872558594 C 16.62356185913086 12.325531005859375 31.103273391723633 6.51740837097168 -14.76722526550293 46.0510368347168 C 7.753233432769775 103.16973114013672 -12.99968433380127 66.79664611816406 -14.161376953125 31.472698211669922 C -0.6421784162521362 12.26253604888916 -17.74468231201172 20.53749656677246 16.664335250854492 71.92356872558594" stroke-width="2.0" fill="rgb(215, 147, 109)" opacity="0.20487075"/>
    <path d="M 61.2806510925293 166.6225128173828 C 72.05082702636719 137.62266540527344 71.08894348144531 151.53622436523438 82.4889144897461 143.5815887451172 C 40.064083099365234 176.60035705566406 81.50591278076172 122.57151794433594 60.785213470458984 146.39830017089844 C 67.27591705322266 117.8307876586914 106.33305358886719 108.48030090332031 52.38417053222656 143.6737060546875 C 72.16313934326172 106.74249267578125 116.46209716796875 124.22482299804688 62.22333526611328 127.10728454589844 C 40.83760070800781 145.3395538330078 46.39073944091797 156.08291625976562 61.2806510925293 166.6225128173828" stroke-width="2.0" fill="rgb(211, 139, 200)" opacity="0.5851922"/>
    <path d="M 133.32325744628906 118.31127166748047 C 106.13540649414062 142.06210327148438 180.2426300048828 96.59366607666016 230.59310913085938 74.98646545410156 C 141.21340942382812 143.90684509277344 104.126953125 132.97601318359375 136.70921325683594 45.53499984741211 C 138.001220703125 97.32615661621094 206.35821533203125 55.94026184082031 119.46734619140625 20.9215087890625 C 106.3189697265625 128.92678833007812 177.04029846191406 114.51136016845703 133.32325744628906 118.31127166748047" stroke-width="2.0" fill="rgb(70, 38, 155)" opacity="0.002005144"/>
    <path d="M 24.69936180114746 85.9621810913086 C 26.102821350097656 33.022857666015625 26.647741317749023 103.94154357910156 36.765296936035156 80.34779357910156 C -0.04757847636938095 79.27735137939453 9.354228973388672 77.78701782226562 -11.287076950073242 59.51007843017578 C 5.05898380279541 96.10310363769531 78.94538879394531 86.32367706298828 -37.340213775634766 67.90011596679688 C 9.431467056274414 142.63429260253906 29.525096893310547 120.4782943725586 27.848533630371094 52.32732009887695 C 25.215906143188477 55.10396194458008 39.54905700683594 70.55433654785156 24.69936180114746 85.9621810913086" stroke-width="2.0" fill="rgb(149, 28, 41)" opacity="0.7189057"/>
    <path d="M 228.7240753173828 190.87542724609375 C 231.66671752929688 183.75253295898438 224.75457763671875 202.7670440673828 225.8988800048828 184.81423950195312 C 238.65676879882812 193.3652801513672 224.76568603515625 190.2758331298828 231.78668212890625 189.04896545410156 C 256.97021484375 195.51327514648438 226.0181884765625 204.7812957763672 218.70753479003906 212.51242065429688 C 239.66070556640625 197.0218505859375 239.98507690429688 183.98646545410156 229.34860229492188 163.28517150878906 C 245.9061737060547 172.34425354003906 231.7738800048828 183.3039093017578 228.7240753173828 190.87542724609375" stroke-width="2.0" fill="rgb(211, 84, 248)" opacity="0.4331444"/>
    <path d="M 56.111968994140625 167.77882385253906 C 73.17286682128906 152.16693115234375 73.39561462402344 155.589111328125 87.39730834960938 190.8959197998047 C 91.8760757446289 176.01409912109375 115.40170288085938 202.23123168945312 9.8463716506958 186.2841033935547 C 63.25383377075195 213.76510620117188 123.05978393554688 229.34255981445312 117.98988342285156 188.9300994873047 C 85.10105895996094 199.61911010742188 61.15337371826172 169.1416015625 87.40789794921875 152.41049194335938 C 70.89459991455078 164.5154266357422 107.51358032226562 197.04092407226562 56.111968994140625 167.77882385253906" stroke-width="2.0" fill="rgb(17, 239, 220)" opacity="0.39486194"/>
    <path d="M 32.87849807739258 113.5683364868164 C 82.01959228515625 108.74811553955078 62.34084701538086 134.2591094970703 53.01536560058594 109.72698211669922 C 29.433984756469727 136.8367156982422 -9.91086196899414 93.77207946777344 95.86065673828125 124.88959503173828 C 21.1445255279541 81.19589233398438 11.599745750427246 115.4994125366211 43.33238983154297 111.04977416992188 C 5.850834846496582 97.81673431396484 -7.35532283782959 150.40806579589844 32.87849807739258 113.5683364868164" stroke-width="2.0" fill="rgb(9, 99, 242)" opacity="0.18549193"/>
    <path d="M 90.53929138183594 51.536216735839844 C 119.49573516845703 34.98390197753906 104.33353424072266 100.35807800292969 80.07781982421875 82.099365234375 C 103.32857513427734 77.58653259277344 115.77296447753906 68.12271881103516 35.00104522705078 90.40206146240234 C 118.15058898925781 121.69548034667969 124.60440063476562 66.90559387207031 90.53929138183594 51.536216735839844" stroke-width="2.0" fill="rgb(173, 117, 50)" opacity="0.51378715"/>
    <path d="M 166.82257080078125 138.51451110839844 C 168.21644592285156 148.45553588867188 124.35359954833984 90.71001434326172 174.4351043701172 151.1200714111328 C 133.25160217285156 128.11721801757812 212.05923461914062 222.5496826171875 178.63681030273438 148.21682739257812 C 213.06849670410156 181.15859985351562 145.3407745361328 138.5772705078125 188.0431671142578 173.69166564941406 C 141.76248168945312 149.6790771484375 147.04766845703125 165.7185821533203 178.22999572753906 174.62474060058594 C 156.10296630859375 183.1157989501953 131.154541015625 175.6352996826172 166.82257080078125 138.51451110839844" stroke-width="2.0" fill="rgb(104, 193, 208)" opacity="0.24050789"/>
    <path d="M 154.61026000976562 76.5793685913086 C 111.24154663085938 68.88711547851562 208.3726348876953 148.79986572265625 140.2901153564453 96.1937255859375 C 166.5154266357422 122.5797348022461 108.64080047607422 144.6988983154297 150.47158813476562 125.82978820800781 C 193.5906982421875 93.05859375 119.21546173095703 93.78459167480469 154.61026000976562 76.5793685913086" stroke-width="2.0" fill="rgb(107, 193, 7)" opacity="0.9080937"/>
    <path d="M -11.736330032348633 128.0545196533203 C -1.3170503377914429 120.3508529663086 34.442039489746094 106.51524353027344 51.39950942993164 180.71051025390625 C 23.549423217773438 152.76881408691406 63.74128341674805 226.09808349609375 -53.982391357421875 180.98904418945312 C -4.330285549163818 98.90201568603516 12.142990112304688 127.7406997680664 55.73339080810547 109.20870208740234 C -4.45187520980835 89.7447280883789 -12.783097267150879 143.8738250732422 32.984336853027344 119.3267822265625 C 9.032708168029785 139.5943603515625 6.649461269378662 102.34304809570312 -11.736330032348633 128.0545196533203" stroke-width="2.0" fill="rgb(183, 244, 149)" opacity="0.9305449"/>
    <path d="M 47.29027557373047 105.48085021972656 C 83.49774169921875 117.15327453613281 43.27360153198242 97.88286590576172 73.80990600585938 119.07653045654297 C 73.7464828491211 126.01148223876953 87.60174560546875 131.15699768066406 70.72822570800781 112.66975402832031 C 101.44871520996094 129.18667602539062 91.20526123046875 144.23370361328125 101.97430419921875 149.4016876220703 C 86.92310333251953 121.31279754638672 106.61177825927734 133.39144897460938 47.29027557373047 105.48085021972656" stroke-width="2.0" fill="rgb(178, 78, 9)" opacity="0.9015242"/>
    <path d="M 125.40924072265625 60.35660171508789 C 159.4977264404297 64.25494384765625 133.2312774658203 24.79784393310547 167.39852905273438 30.69605827331543 C 171.88783264160156 35.21755599975586 158.90789794921875 51.24089431762695 117.7342529296875 34.99142074584961 C 133.59339904785156 16.043567657470703 124.02188110351562 34.27049255371094 140.79638671875 53.79764938354492 C 173.0186309814453 28.384597778320312 168.61415100097656 34.95463562011719 125.40924072265625 60.35660171508789" stroke-width="2.0" fill="rgb(32, 181, 58)" opacity="0.544619"/>
    <path d="M 27.12464141845703 11.402643203735352 C 50.829010009765625 39.18889617919922 31.472856521606445 -13.562559127807617 -8.870851516723633 41.5966911315918 C 39.47011184692383 65.0892562866211 37.529476165771484 22.869762420654297 7.801001071929932 30.780973434448242 C 46.56611251831055 69.83311462402344 89.00785827636719 13.650882720947266 27.12464141845703 11.402643203735352" stroke-width="2.0" fill="rgb(204, 197, 114)" opacity="0.29116726"/>
    <path d="M 222.4927978515625 140.72979736328125 C 203.78916931152344 159.9039306640625 193.84536743164062 114.35875701904297 194.67343139648438 156.36085510253906 C 177.65631103515625 115.77323913574219 205.32131958007812 169.0302276611328 183.14109802246094 143.1510772705078 C 232.82528686523438 149.74420166015625 191.94857788085938 154.57644653320312 222.4927978515625 140.72979736328125" stroke-width="2.0" fill="rgb(244, 194, 168)" opacity="0.9625646"/>
    <path d="M 69.1393814086914 211.30880737304688 C 64.37235260009766 183.44122314453125 -53.15378189086914 179.36691284179688 1.1529541015625 228.4866943359375 C 13.028515815734863 169.44940185546875 3.9970500469207764 160.42459106445312 3.2436001300811768 237.33326721191406 C 70.35295104980469 242.86216735839844 61.04286575317383 224.38430786132812 79.26765441894531 241.48875427246094 C 86.00064086914062 184.91067504882812 69.51927947998047 198.45819091796875 69.1393814086914 211.30880737304688" stroke-width="2.0" fill="rgb(91, 196, 226)" opacity="0.8420371"/>
    <path d="M -9.22963809967041 57.87303924560547 C -4.316504001617432 16.00685691833496 29.5390567779541 -1.5362869501113892 58.40916442871094 14.131306648254395 C 59.650550842285156 -31.73837661743164 50.56085205078125 -1.5753769874572754 27.61812973022461 0.1480010449886322 C 16.83941650390625 6.391402721405029 24.270185470581055 -4.514336585998535 48.01860427856445 4.530397415161133 C 50.38040542602539 4.278723239898682 0.8221771717071533 7.352431297302246 41.84164810180664 3.3479294776916504 C 75.3228759765625 28.940345764160156 46.40190505981445 -14.765076637268066 -9.22963809967041 57.87303924560547" stroke-width="2.0" fill="rgb(95, 71, 111)" opacity="0.46184483"/>
    <path d="M -14.59020709991455 221.9637908935547 C 266.63568115234375 221.91213989257812 268.6716003417969 221.9758758544922 235.468505859375 221.6621551513672 C 146.4929656982422 249.1682891845703 140.95285034179688 228.6764678955078 143.78367614746094 235.7530059814453 C 141.61473083496094 236.19647216796875 114.31278228759766 267.2412109375 -14.59020709991455 221.9637908935547" stroke-width="2.0" fill="rgb(136, 20, 234)" opacity="0.44451958"/>
    <path d="M 160.27085876464844 221.19248962402344 C 161.2452392578125 179.53839111328125 147.28900146484375 160.94528198242188 86.97721099853516 221.27000427246094 C 166.78012084960938 219.79962158203125 172.5438995361328 236.06202697753906 155.9452667236328 189.48812866210938 C 194.01107788085938 182.0305633544922 169.5792999267578 140.21774291992188 197.94384765625 227.407958984375 C 276.0255126953125 238.16055297851562 199.6526336669922 218.91644287109375 160.27085876464844 221.19248962402344" stroke-width="2.0" fill="rgb(118, 174, 26)" opacity="0.2843034"/>
    <path d="M 31.4373722076416 22.3878231048584 C 39.55428695678711 119.8753433227539 32.86441421508789 98.57731628417969 53.234615325927734 38.02851867675781 C 69.80387115478516 126.75334167480469 -48.03425598144531 70.91703033447266 6.507009983062744 36.926055908203125 C 9.092839241027832 49.30744171142578 0.9966752529144287 21.598526000976562 31.4373722076416 22.3878231048584" stroke-width="2.0" fill="rgb(222, 189, 125)" opacity="0.77840877"/>
    <path d="M 65.96202850341797 219.51040649414062 C 64.76307678222656 196.2139434814453 66.69043731689453 192.5290985107422 57.525840759277344 211.79542541503906 C 56.57270812988281 200.1783447265625 67.53137969970703 215.227783203125 60.44784164428711 177.1502685546875 C 35.74795913696289 178.0198516845703 74.49954223632812 179.46315002441406 64.02913665771484 186.34805297851562 C -2.1259043216705322 144.046630859375 71.88233184814453 158.556884765625 65.96202850341797 219.51040649414062" stroke-width="2.0" fill="rgb(246, 160, 145)" opacity="0.58863944"/>
    <path d="M 96.84346771240234 119.62830352783203 C 148.40362548828125 140.17034912109375 122.30641174316406 102.01970672607422 117.92518615722656 122.43925476074219 C 97.42056274414062 104.96318817138672 102.61922454833984 103.25653839111328 111.12278747558594 106.62873840332031 C 102.3863754272461 95.87432861328125 121.60548400878906 104.4591293334961 102.86825561523438 96.92646026611328 C 119.19437408447266 106.66387176513672 113.81906127929688 84.12754821777344 105.32117462158203 89.85892486572266 C 117.83032989501953 115.55614471435547 126.42192840576172 90.20146942138672 96.84346771240234 119.62830352783203" stroke-width="2.0" fill="rgb(59, 20, 18)" opacity="0.10085195"/>
    <path d="M 76.40763854980469 190.60736083984375 C 38.176395416259766 173.5640869140625 67.09510040283203 200.5703887939453 31.900484085083008 188.58453369140625 C 57.8627815246582 218.6196746826172 74.7087173461914 152.15139770507812 57.350894927978516 195.91622924804688 C 65.25724029541016 183.11105346679688 24.392763137817383 203.238525390625 42.182899475097656 182.66867065429688 C 25.165998458862305 190.95159912109375 44.02285385131836 196.51199340820312 35.19371032714844 175.99896240234375 C 19.143278121948242 230.3722686767578 -5.514391899108887 189.3765411376953 76.40763854980469 190.60736083984375" stroke-width="2.0" fill="rgb(4, 111, 84)" opacity="0.80749685"/>
    <path d="M 91.34091186523438 124.82222747802734 C 130.1943817138672 199.6726531982422 84.67193603515625 125.86433410644531 84.02517700195312 131.1120147705078 C 68.24301147460938 139.18496704101562 108.53137969970703 141.8350830078125 89.1148452758789 128.77293395996094 C 90.38471984863281 124.71367645263672 66.45238494873047 134.7467803955078 48.29680252075195 154.0291748046875 C 65.54939270019531 164.552490234375 46.62416076660156 137.58193969726562 91.34091186523438 124.82222747802734" stroke-width="2.0" fill="rgb(56, 61, 178)" opacity="0.1903501"/>
    <path d="M 69.6911849975586 34.826873779296875 C 44.4936637878418 31.12737274169922 33.94441223144531 58.652191162109375 100.53489685058594 16.12462615966797 C 24.893489837646484 -20.104724884033203 1.0306504964828491 79.56207275390625 40.131553649902344 19.165502548217773 C 44.64872741699219 30.37657356262207 31.69890594482422 28.633865356445312 28.282337188720703 142.5127410888672 C 16.01485252380371 45.409244537353516 17.914039611816406 35.57493591308594 42.15370559692383 19.155393600463867 C 16.12251853942871 42.68739700317383 29.981155395507812 -9.513821601867676 69.6911849975586 34.826873779296875" stroke-width="2.0" fill="rgb(91, 188, 228)" opacity="0.060373105"/>
    <path d="M 208.62110900878906 130.13478088378906 C 195.37962341308594 129.54351806640625 207.5269775390625 127.54461669921875 197.88763427734375 130.3743896484375 C 200.01939392089844 132.0247802734375 194.24819946289062 133.06443786621094 187.56556701660156 106.11134338378906 C 193.5553741455078 135.9205322265625 202.583740234375 129.52615356445312 197.81613159179688 127.81607818603516 C 204.87713623046875 132.53994750976562 202.2563934326172 127.1280746459961 208.62110900878906 130.13478088378906" stroke-width="2.0" fill="rgb(153, 126, 42)" opacity="0.97395784"/>
    <path d="M 149.3069610595703 128.20486450195312 C 104.01731872558594 192.30552673339844 187.24305725097656 208.6733856201172 213.77011108398438 182.86697387695312 C 210.33447265625 168.366943359375 193.72994995117188 157.0254669189453 207.29307556152344 170.38165283203125 C 212.05638122558594 210.1738739013672 209.40672302246094 152.1491241455078 210.2639617919922 194.4044189453125 C 207.45700073242188 189.0477294921875 202.57388305664062 146.84910583496094 200.87689208984375 150.4923095703125 C 172.87451171875 87.06596374511719 210.32286071777344 137.58323669433594 149.3069610595703 128.20486450195312" stroke-width="2.0" fill="rgb(47, 5, 131)" opacity="0.69047886"/>
    <path d="M 231.56015014648438 52.474403381347656 C 232.1107177734375 75.92395782470703 190.64710998535156 47.424949645996094 119.9818115234375 70.21881866455078 C 207.12619018554688 68.08621215820312 194.83375549316406 74.7482681274414 236.37454223632812 71.98973083496094 C 228.11370849609375 21.87590789794922 209.84487915039062 46.98577880859375 232.88296508789062 36.75958251953125 C 226.81204223632812 38.80397033691406 238.12925720214844 53.71355056762695 231.56015014648438 52.474403381347656" stroke-width="2.0" fill="rgb(176, 212, 208)" opacity="0.37748724"/>
    <path d="M 231.73526000976562 166.14013671875 C 175.64932250976562 109.69584655761719 145.63990783691406 138.67324829101562 200.1539764404297 93.48404693603516 C 133.8887481689453 114.67249298095703 143.2155303955078 122.80335998535156 218.28172302246094 132.6130828857422 C 210.9990234375 107.90326690673828 186.949951171875 139.6746368408203 231.73526000976562 166.14013671875" stroke-width="2.0" fill="rgb(245, 112, 104)" opacity="0.12934257"/>
    <path d="M 178.885498046875 64.41370391845703 C 169.10824584960938 22.741107940673828 167.3063507080078 29.29193115234375 147.97930908203125 33.03373718261719 C 155.0833282470703 42.55935287475586 179.58111572265625 66.00880432128906 160.45086669921875 36.6537971496582 C 146.92901611328125 80.29283142089844 179.5531005859375 58.060935974121094 178.885498046875 64.41370391845703" stroke-width="2.0" fill="rgb(152, 6, 108)" opacity="0.1909849"/>
    <path d="M -5.46976375579834 163.57986450195312 C 21.20099449157715 147.96353149414062 16.123470306396484 146.5947723388672 -22.51759910583496 169.28012084960938 C 22.54435920715332 185.8794403076172 -28.173017501831055 139.85598754882812 61.78964614868164 171.5877685546875 C 3.6918177604675293 139.84829711914062 -5.294671058654785 164.74256896972656 13.552164077758789 151.66079711914062 C -19.78863525390625 143.35519409179688 -13.704553604125977 231.49513244628906 8.502534866333008 171.0760498046875 C 51.839725494384766 221.4348907470703 2.2994415760040283 181.09469604492188 -5.46976375579834 163.57986450195312" stroke-width="2.0" fill="rgb(100, 45, 34)" opacity="0.039449282"/>
    <path d="M 85.09212493896484 137.00238037109375 C 65.08004760742188 143.34085083007812 57.0723876953125 85.74046325683594 76.53369140625 100.35420227050781 C 105.4625015258789 144.4241943359375 111.19915771484375 168.82998657226562 86.57738494873047 127.39456939697266 C 58.93600845336914 125.75784301757812 108.13191223144531 169.8284454345703 85.09212493896484 137.00238037109375" stroke-width="2.0" fill="rgb(43, 240, 93)" opacity="0.131904"/>
  </g>
</svg>
