<?xml version="1.0" ?>
<svg xmlns="http://www.w3.org/2000/svg" version="1.1" width="224" height="224">
  <defs/>
  <g>
    <path d="M 150.35548400878906 172.39053344726562 C 159.728515625 169.73236083984375 224.93067932128906 197.64346313476562 147.69154357910156 211.22715759277344 C 158.67666625976562 159.03997802734375 147.01242065429688 179.70094299316406 166.9496612548828 204.43458557128906 C 165.5723876953125 156.80209350585938 142.50558471679688 152.9970703125 182.50059509277344 155.41766357421875 C 155.24951171875 142.9327850341797 152.76348876953125 130.8363494873047 150.35548400878906 172.39053344726562" stroke-width="2.0" fill="rgb(-70, -72, -47)" opacity="1.4812346"/>
    <path d="M 198.63314819335938 96.7425308227539 C 178.61032104492188 79.25277709960938 178.35777282714844 111.62860107421875 197.08731079101562 98.11375427246094 C 171.15455627441406 102.29753875732422 157.39710998535156 169.64100646972656 201.82525634765625 170.1835479736328 C 203.04153442382812 134.09706115722656 182.05470275878906 166.2593994140625 198.63314819335938 96.7425308227539" stroke-width="2.0" fill="rgb(-38, -18, -14)" opacity="1.893566"/>
    <path d="M 159.43516540527344 157.6643829345703 C 176.39024353027344 153.2765350341797 221.30517578125 155.05325317382812 206.72402954101562 193.3311767578125 C 158.17173767089844 205.16790771484375 184.0782470703125 131.46463012695312 146.36705017089844 196.7172393798828 C 126.1874771118164 143.1317901611328 153.4824981689453 123.0774917602539 182.05197143554688 169.154541015625 C 143.4280548095703 145.15798950195312 151.02157592773438 134.9282989501953 171.50396728515625 152.7308807373047 C 221.2512969970703 196.30247497558594 195.4105224609375 134.5216064453125 159.43516540527344 157.6643829345703" stroke-width="2.0" fill="rgb(-88, -69, -68)" opacity="1.955201"/>
    <path d="M 221.3196563720703 -7.352975845336914 C 210.01234436035156 -3.2948858737945557 216.23733520507812 -7.3090338706970215 212.17332458496094 -11.355108261108398 C 220.9599151611328 -6.305527210235596 215.87399291992188 -9.532291412353516 210.76927185058594 -4.7872314453125 C 214.7083740234375 -4.274753570556641 219.31219482421875 -4.718450546264648 221.3196563720703 -7.352975845336914" stroke-width="2.0" fill="rgb(189, 126, 164)" opacity="0.873322"/>
    <path d="M 105.45140838623047 210.25204467773438 C 93.99556732177734 205.59410095214844 124.84117889404297 206.53016662597656 112.8310775756836 220.12144470214844 C 112.41145324707031 257.62603759765625 117.40867614746094 254.17384338378906 123.48350524902344 238.15948486328125 C 132.05682373046875 231.8826141357422 128.6205291748047 227.87454223632812 129.0424041748047 228.3408203125 C 127.46800231933594 231.91412353515625 127.74835968017578 229.357177734375 84.23767852783203 233.6021270751953 C 90.60050964355469 236.26622009277344 92.39752197265625 238.3309783935547 105.45140838623047 210.25204467773438" stroke-width="2.0" fill="rgb(-57, -49, -49)" opacity="1.2722865"/>
    <path d="M -21.742210388183594 59.46460723876953 C 27.867862701416016 48.90473175048828 0.7284954190254211 21.767675399780273 8.182405471801758 85.25901794433594 C 12.634756088256836 33.21783447265625 -17.10315704345703 29.903966903686523 15.231634140014648 32.6530647277832 C 23.664464950561523 59.930938720703125 -8.34237289428711 53.57366180419922 -21.742210388183594 59.46460723876953" stroke-width="2.0" fill="rgb(175, -122, -399)" opacity="1.5954803"/>
    <path d="M 171.15115356445312 66.22749328613281 C 263.44024658203125 69.37178802490234 265.1520690917969 61.084957122802734 225.86724853515625 96.91451263427734 C 89.49720764160156 151.50148010253906 206.38226318359375 115.21868133544922 194.65806579589844 92.85643005371094 C 154.07476806640625 73.59671783447266 169.18710327148438 101.22627258300781 130.23110961914062 87.27725219726562 C 158.51829528808594 89.25999450683594 162.39804077148438 94.08234405517578 171.15115356445312 66.22749328613281" stroke-width="2.0" fill="rgb(216, 221, 33)" opacity="0.8532584"/>
    <path d="M 193.60037231445312 67.59107971191406 C 207.1573486328125 70.35736083984375 218.1355743408203 70.24897766113281 186.4620361328125 67.00902557373047 C 134.17105102539062 79.40306091308594 172.46925354003906 72.22901916503906 233.78076171875 68.92335510253906 C 213.07644653320312 74.08210754394531 221.90159606933594 55.462493896484375 219.13836669921875 81.14668273925781 C 183.58888244628906 104.40697479248047 221.1756591796875 86.42400360107422 218.03921508789062 96.30182647705078 C 256.3022766113281 59.83138656616211 245.88706970214844 69.13267517089844 193.60037231445312 67.59107971191406" stroke-width="2.0" fill="rgb(-11, 265, -34)" opacity="0.09747879"/>
    <path d="M 163.77316284179688 58.584861755371094 C 191.1839599609375 49.460853576660156 168.9623565673828 51.93491744995117 170.3839569091797 49.946632385253906 C 183.24981689453125 41.3954963684082 181.9188690185547 47.85637283325195 190.2203826904297 48.61335372924805 C 192.37576293945312 49.873477935791016 203.0242919921875 49.701622009277344 204.8679962158203 62.25592041015625 C 190.74391174316406 67.1794662475586 173.73533630371094 81.30333709716797 163.77316284179688 58.584861755371094" stroke-width="2.0" fill="rgb(169, 137, 202)" opacity="0.0030482465"/>
    <path d="M 137.17791748046875 211.14173889160156 C 184.16900634765625 206.53488159179688 154.8095245361328 191.09375 145.00656127929688 205.630859375 C 127.23200225830078 146.55032348632812 142.59852600097656 211.8836669921875 94.42622375488281 195.96560668945312 C 120.65390014648438 178.965576171875 118.73934936523438 216.88870239257812 116.20789337158203 202.41859436035156 C 120.20365142822266 186.7417449951172 99.54755401611328 203.40257263183594 137.17791748046875 211.14173889160156" stroke-width="2.0" fill="rgb(1, 80, -130)" opacity="1.7479955"/>
    <path d="M -16.18919563293457 38.02874755859375 C 4.9559407234191895 20.558202743530273 -15.903878211975098 43.568359375 -15.977999687194824 49.76310348510742 C -10.901914596557617 49.840606689453125 -32.46397018432617 14.898392677307129 33.440956115722656 10.91648006439209 C -28.55992317199707 49.8249626159668 -25.77495574951172 57.708473205566406 -1.807431936264038 54.740257263183594 C -33.36474609375 60.99179458618164 0.7898207306861877 84.17945861816406 30.632692337036133 85.35774230957031 C 44.09856414794922 77.42353820800781 32.06630325317383 33.58779525756836 -16.18919563293457 38.02874755859375" stroke-width="2.0" fill="rgb(924, 769, 675)" opacity="0.91739386"/>
    <path d="M 95.8896484375 83.88703155517578 C 37.80335235595703 81.30172729492188 16.834062576293945 89.18067169189453 65.9859848022461 100.60527038574219 C 53.83475112915039 96.39291381835938 15.848709106445312 101.05620574951172 43.78791809082031 117.74149322509766 C 78.40373229980469 101.95976257324219 14.996111869812012 67.4595718383789 95.8896484375 83.88703155517578" stroke-width="2.0" fill="rgb(-37, -81, -129)" opacity="2.4369776"/>
    <path d="M 203.52078247070312 8.691261291503906 C 205.9788055419922 33.657501220703125 214.37185668945312 14.458898544311523 206.8830108642578 31.09282684326172 C 210.59922790527344 16.867876052856445 203.3599853515625 12.324738502502441 210.9714813232422 2.468533754348755 C 208.02247619628906 29.525991439819336 215.82077026367188 17.602094650268555 198.67466735839844 18.671865463256836 C 210.25257873535156 17.576303482055664 202.42324829101562 11.81971549987793 204.1844940185547 28.912031173706055 C 199.99319458007812 27.725128173828125 201.4557342529297 -5.326440811157227 203.52078247070312 8.691261291503906" stroke-width="2.0" fill="rgb(100, 287, 383)" opacity="0.115619905"/>
    <path d="M 126.78194427490234 158.22378540039062 C 143.17620849609375 137.4016876220703 117.84144592285156 152.5000457763672 176.97132873535156 148.84390258789062 C 197.54244995117188 173.00027465820312 171.4467315673828 110.76084899902344 140.2091522216797 157.9529266357422 C 108.05195617675781 133.66502380371094 143.67697143554688 133.13925170898438 126.78194427490234 158.22378540039062" stroke-width="2.0" fill="rgb(456, 341, 186)" opacity="0.5752025"/>
    <path d="M 174.19334411621094 43.780113220214844 C 180.61129760742188 36.58417892456055 168.1317901611328 48.941978454589844 173.26634216308594 49.83013916015625 C 167.0727081298828 42.167236328125 171.02163696289062 51.70806884765625 171.3944549560547 39.00430679321289 C 163.66162109375 72.81108856201172 213.32383728027344 45.343475341796875 92.58683013916016 54.4384651184082 C 135.88925170898438 40.808082580566406 175.21202087402344 58.54554748535156 174.19334411621094 43.780113220214844" stroke-width="2.0" fill="rgb(530, 194, 109)" opacity="0.1425185"/>
    <path d="M -18.99810218811035 127.77827453613281 C -23.193117141723633 115.30443572998047 -11.934624671936035 129.2971649169922 -49.91842269897461 100.40991973876953 C -16.967435836791992 76.21086120605469 56.40995407104492 59.69399642944336 28.106721878051758 136.43923950195312 C -54.582401275634766 95.35002899169922 72.7405776977539 148.62045288085938 23.883935928344727 141.72933959960938 C -7.653472423553467 107.76769256591797 -73.31021118164062 164.8013153076172 -8.650103569030762 135.9418182373047 C 32.049842834472656 151.1554718017578 21.92379379272461 139.38885498046875 -18.99810218811035 127.77827453613281" stroke-width="2.0" fill="rgb(122, 61, 132)" opacity="0.9021625"/>
    <path d="M 146.1693878173828 228.7593536376953 C 204.3868865966797 236.35626220703125 204.87417602539062 258.54840087890625 205.2026824951172 212.180419921875 C 216.98008728027344 232.91500854492188 232.06448364257812 186.55511474609375 191.08950805664062 230.15745544433594 C 147.28636169433594 231.10569763183594 158.984619140625 226.73570251464844 165.1333770751953 229.3092498779297 C 155.42483520507812 231.0521240234375 173.43923950195312 261.2718200683594 183.19082641601562 215.5751190185547 C 159.86366271972656 197.48008728027344 144.10891723632812 199.87966918945312 146.1693878173828 228.7593536376953" stroke-width="2.0" fill="rgb(462, 419, 488)" opacity="0.69580823"/>
    <path d="M 174.3479766845703 -23.739017486572266 C 182.77635192871094 -8.86971664428711 183.7808074951172 0.2349132001399994 187.18487548828125 -1.41405189037323 C 180.70159912109375 -5.524604797363281 178.8140106201172 -12.416251182556152 209.6158905029297 -21.4158992767334 C 218.11546325683594 7.086915016174316 224.99136352539062 19.425792694091797 194.02902221679688 24.702251434326172 C 165.13980102539062 17.433368682861328 163.56503295898438 -2.167961359024048 174.3479766845703 -23.739017486572266" stroke-width="2.0" fill="rgb(412, 185, 274)" opacity="0.029163051"/>
    <path d="M 98.02515411376953 223.1985626220703 C 49.308162689208984 163.4644012451172 12.298900604248047 176.31227111816406 14.932025909423828 193.57691955566406 C 17.14883041381836 232.49285888671875 -3.183603048324585 212.5643310546875 3.0326993465423584 171.33425903320312 C 28.85238265991211 226.86770629882812 25.014373779296875 188.29571533203125 -2.639598846435547 216.50465393066406 C -23.88762664794922 259.1404724121094 -13.631248474121094 247.06419372558594 -8.430839538574219 242.41387939453125 C -10.499492645263672 223.8108673095703 -30.066282272338867 219.4658966064453 98.02515411376953 223.1985626220703" stroke-width="2.0" fill="rgb(-41, 21, -241)" opacity="1.1391728"/>
    <path d="M 39.09788513183594 69.60317993164062 C 71.27950286865234 54.50303268432617 88.88197326660156 71.68238830566406 31.768253326416016 84.91777038574219 C 65.66206359863281 79.15052032470703 83.05013275146484 76.75093841552734 103.98561096191406 68.3338394165039 C 94.6622085571289 94.24459075927734 108.48641967773438 100.18457794189453 39.09788513183594 69.60317993164062" stroke-width="2.0" fill="rgb(-102, -67, -105)" opacity="1.7728033"/>
    <path d="M 212.64468383789062 173.97901916503906 C 211.55308532714844 209.1904754638672 247.69444274902344 201.23486328125 226.53338623046875 186.98739624023438 C 176.69754028320312 211.99342346191406 184.046630859375 202.9778594970703 190.1337127685547 221.5009002685547 C 199.50425720214844 180.19662475585938 180.9947967529297 182.93177795410156 219.08203125 204.54542541503906 C 179.1668701171875 215.43353271484375 218.20509338378906 246.0613250732422 212.64468383789062 173.97901916503906" stroke-width="2.0" fill="rgb(5, 357, -233)" opacity="0.88257366"/>
    <path d="M 81.03861999511719 94.15289306640625 C 78.84027862548828 159.84617614746094 123.36390686035156 123.753173828125 61.8463134765625 107.18770599365234 C 24.169469833374023 108.80931091308594 -4.810360908508301 101.18683624267578 46.719825744628906 128.3872528076172 C 59.736576080322266 82.28276824951172 55.88306427001953 101.21076965332031 38.075557708740234 60.83878707885742 C 51.76809310913086 103.07929229736328 30.300962448120117 103.43408203125 81.03861999511719 94.15289306640625" stroke-width="2.0" fill="rgb(22, -19, -95)" opacity="0.5769396"/>
    <path d="M 10.10428237915039 13.44892692565918 C 32.160125732421875 36.29505920410156 25.062713623046875 139.68411254882812 16.672073364257812 41.35236740112305 C 59.635799407958984 32.812164306640625 3.656707286834717 21.52885627746582 58.77048110961914 28.687225341796875 C 96.26245880126953 60.900413513183594 86.02269744873047 117.56287384033203 24.86832618713379 100.80458068847656 C 43.3857307434082 83.66093444824219 22.96564292907715 108.80975341796875 10.10428237915039 13.44892692565918" stroke-width="2.0" fill="rgb(783, 647, 499)" opacity="0.58440405"/>
    <path d="M 241.0530548095703 112.38069152832031 C 171.36451721191406 143.2450408935547 225.7214813232422 90.23371887207031 214.63943481445312 132.22300720214844 C 226.143310546875 143.4004364013672 198.66937255859375 144.1516571044922 205.38169860839844 129.39686584472656 C 272.44293212890625 128.49038696289062 220.947998046875 172.91477966308594 203.78494262695312 145.51837158203125 C 179.11782836914062 92.64862060546875 185.3144989013672 105.13080596923828 176.15269470214844 172.08148193359375 C 183.89935302734375 125.9007568359375 173.77459716796875 103.09355163574219 241.0530548095703 112.38069152832031" stroke-width="2.0" fill="rgb(35, 188, -8)" opacity="0.48510697"/>
    <path d="M 189.68576049804688 110.67561340332031 C 207.9573516845703 149.2288055419922 177.59213256835938 154.0752410888672 207.09109497070312 146.0465850830078 C 224.6920623779297 177.252685546875 225.33302307128906 150.4793243408203 183.49400329589844 123.4591293334961 C 181.252197265625 159.4068145751953 175.86846923828125 182.8811798095703 154.8911895751953 182.2029571533203 C 171.62315368652344 157.3397979736328 185.4078826904297 141.71441650390625 189.68576049804688 110.67561340332031" stroke-width="2.0" fill="rgb(65, 56, 52)" opacity="0.6054432"/>
    <path d="M 21.4310245513916 18.0864200592041 C 19.351179122924805 -6.756953716278076 9.028765678405762 16.957569122314453 40.41225814819336 8.633284568786621 C 64.07503509521484 36.031429290771484 57.1140022277832 15.844755172729492 42.924659729003906 -5.412760257720947 C 64.02526092529297 24.791078567504883 46.13428497314453 11.431840896606445 21.4310245513916 18.0864200592041" stroke-width="2.0" fill="rgb(362, 516, 420)" opacity="0.3897136"/>
    <path d="M 59.2829475402832 197.97154235839844 C 61.919551849365234 193.30010986328125 46.58168029785156 130.8358917236328 92.4905014038086 142.3459014892578 C 83.0432357788086 112.21893310546875 43.488067626953125 141.66737365722656 50.69215393066406 176.41921997070312 C 11.294468879699707 143.4542999267578 41.71603012084961 128.75595092773438 65.11136627197266 117.03813171386719 C 26.01017189025879 168.9813232421875 34.67279052734375 106.8878402709961 56.672515869140625 121.17329406738281 C 50.58415222167969 141.25328063964844 49.61658477783203 170.36282348632812 59.2829475402832 197.97154235839844" stroke-width="2.0" fill="rgb(352, 162, -33)" opacity="0.16436143"/>
    <path d="M 177.55775451660156 97.65242767333984 C 150.78741455078125 66.5758285522461 163.24273681640625 81.47704315185547 149.05322265625 95.75822448730469 C 139.99566650390625 74.75669860839844 193.65298461914062 74.60575103759766 151.5349578857422 98.80125427246094 C 157.75912475585938 79.2367935180664 174.48817443847656 114.22837829589844 157.6975555419922 83.26097106933594 C 167.4386749267578 90.72254180908203 141.9748992919922 75.24662017822266 177.55775451660156 97.65242767333984" stroke-width="2.0" fill="rgb(-54, -66, -29)" opacity="2.1189191"/>
    <path d="M 90.98634338378906 93.47210693359375 C 100.31766510009766 81.09892272949219 110.82669830322266 74.46855926513672 86.7467041015625 59.487579345703125 C 96.37681579589844 108.903564453125 112.1907958984375 108.92571258544922 41.08123779296875 92.16011047363281 C 65.19281005859375 76.26472473144531 34.90007781982422 117.0951156616211 80.1762466430664 96.38227081298828 C 57.692378997802734 79.8522720336914 47.28573989868164 64.45757293701172 82.07777404785156 82.63044738769531 C 25.15611457824707 55.91099166870117 56.74900436401367 84.61425018310547 90.98634338378906 93.47210693359375" stroke-width="2.0" fill="rgb(45, -40, -362)" opacity="0.6832751"/>
    <path d="M 70.25900268554688 70.87430572509766 C 118.89446258544922 74.93620300292969 109.68081665039062 39.537025451660156 86.68668365478516 91.84004974365234 C 69.0689926147461 122.30690002441406 123.4826889038086 165.9001007080078 76.92000579833984 99.80203247070312 C 64.41561126708984 119.43521881103516 105.46998596191406 132.2577667236328 70.25900268554688 70.87430572509766" stroke-width="2.0" fill="rgb(-154, -174, -86)" opacity="0.38116354"/>
    <path d="M 182.9612274169922 108.35350799560547 C 158.1829833984375 72.10905456542969 153.9227752685547 62.648983001708984 123.36426544189453 86.9911117553711 C 114.521240234375 102.44140625 156.82000732421875 86.8009033203125 158.15328979492188 88.54023742675781 C 128.77871704101562 59.19397735595703 133.1778106689453 107.67610931396484 182.9612274169922 108.35350799560547" stroke-width="2.0" fill="rgb(250, 42, -146)" opacity="0.5626861"/>
    <path d="M 69.1765365600586 53.89503860473633 C 40.96758270263672 28.061534881591797 28.57328224182129 5.193557262420654 28.24720001220703 19.708457946777344 C 75.20531463623047 37.83989334106445 47.543277740478516 37.353965759277344 22.766958236694336 10.163920402526855 C 37.71786117553711 5.864065647125244 66.92250061035156 15.652234077453613 36.74509811401367 0.218813955783844 C 57.686439514160156 24.186525344848633 70.42869567871094 16.48731803894043 69.1765365600586 53.89503860473633" stroke-width="2.0" fill="rgb(529, 604, 327)" opacity="0.30275896"/>
    <path d="M 199.34970092773438 98.58585357666016 C 172.70355224609375 143.6464385986328 216.3995361328125 148.38279724121094 235.61477661132812 162.2221221923828 C 224.4239044189453 101.0673599243164 245.15846252441406 116.53437805175781 295.97027587890625 83.20535278320312 C 284.9477233886719 89.29785919189453 265.8912048339844 93.96011352539062 199.34970092773438 98.58585357666016" stroke-width="2.0" fill="rgb(161, 286, -20)" opacity="0.8306724"/>
    <path d="M 31.649972915649414 166.07833862304688 C 31.05271339416504 161.07662963867188 31.124879837036133 96.81876373291016 34.592674255371094 120.7588882446289 C 35.57899475097656 188.39744567871094 35.353580474853516 150.8184814453125 53.9499397277832 135.12802124023438 C 73.95761108398438 91.80169677734375 18.841293334960938 156.62774658203125 30.278099060058594 100.515380859375 C 94.59870147705078 90.90496063232422 53.32506561279297 97.27659606933594 31.649972915649414 166.07833862304688" stroke-width="2.0" fill="rgb(450, 409, 323)" opacity="0.36971527"/>
    <path d="M 171.67457580566406 64.62870788574219 C 171.6513214111328 91.23875427246094 214.76019287109375 62.47135925292969 204.05447387695312 82.95980072021484 C 231.6681365966797 87.35527038574219 248.30026245117188 74.80248260498047 226.18490600585938 62.4351921081543 C 255.1141357421875 87.97176361083984 276.0006103515625 100.49571228027344 175.1449432373047 85.85063171386719 C 193.3753662109375 50.342079162597656 205.97695922851562 85.96574401855469 193.67288208007812 81.40579223632812 C 177.22232055664062 62.62274169921875 260.6588439941406 67.17353057861328 171.67457580566406 64.62870788574219" stroke-width="2.0" fill="rgb(-138, 288, -306)" opacity="0.08296152"/>
    <path d="M 57.08037185668945 87.29297637939453 C 40.95945358276367 84.61402130126953 101.25988006591797 110.80107116699219 68.90937805175781 113.52723693847656 C 101.59359741210938 142.16488647460938 72.09392547607422 113.09407043457031 66.05774688720703 140.7706298828125 C 60.84236145019531 179.76718139648438 22.455801010131836 143.3930206298828 57.08037185668945 87.29297637939453" stroke-width="2.0" fill="rgb(551, 8, -431)" opacity="0.057684705"/>
    <path d="M 48.82630920410156 36.97776412963867 C 24.72371482849121 43.514041900634766 78.81697082519531 76.91778564453125 71.80640411376953 39.57878112792969 C 19.076879501342773 48.678550720214844 59.68445587158203 71.19420623779297 39.518821716308594 46.047080993652344 C 54.429656982421875 73.2763900756836 54.34002685546875 49.00156021118164 54.85765075683594 51.276344299316406 C 71.07807922363281 59.44992446899414 59.24312973022461 52.60834503173828 48.82630920410156 36.97776412963867" stroke-width="2.0" fill="rgb(20, -141, -25)" opacity="1.86509"/>
    <path d="M 127.7083511352539 177.28407287597656 C 165.0191192626953 222.12855529785156 159.88671875 215.23936462402344 134.1966094970703 197.80926513671875 C 152.74029541015625 154.1556396484375 151.3899688720703 229.3941192626953 129.3202362060547 186.03125 C 123.68833923339844 214.41921997070312 156.11387634277344 194.77810668945312 116.74443054199219 181.3809051513672 C 148.66061401367188 171.1791229248047 111.92809295654297 171.9312286376953 144.0100555419922 168.12667846679688 C 103.4862289428711 107.45663452148438 96.55474853515625 198.00909423828125 127.7083511352539 177.28407287597656" stroke-width="2.0" fill="rgb(33, 98, -128)" opacity="1.412036"/>
    <path d="M 229.04232788085938 23.611282348632812 C 232.5660400390625 27.47386932373047 232.39454650878906 31.59752082824707 231.6951904296875 35.43011474609375 C 228.5605010986328 33.708984375 230.51864624023438 37.78269958496094 225.18145751953125 36.646217346191406 C 230.48570251464844 35.554134368896484 239.491943359375 33.48181915283203 229.04232788085938 23.611282348632812" stroke-width="2.0" fill="rgb(57, 243, 210)" opacity="0.3657955"/>
    <path d="M 167.31204223632812 75.15650177001953 C 153.82350158691406 16.87960433959961 158.7286376953125 11.082730293273926 196.93804931640625 -7.641136646270752 C 197.9271240234375 62.97373962402344 213.9368896484375 115.95594787597656 250.0569305419922 82.39726257324219 C 269.92291259765625 91.71833038330078 268.431884765625 -6.625189304351807 216.69992065429688 -17.900463104248047 C 187.32388305664062 34.86397171020508 208.064453125 70.87606811523438 167.31204223632812 75.15650177001953" stroke-width="2.0" fill="rgb(292, 247, 235)" opacity="0.08579423"/>
    <path d="M 161.52020263671875 69.40767669677734 C 171.58485412597656 91.6767578125 169.05909729003906 63.982051849365234 164.6891632080078 71.37062072753906 C 228.63983154296875 67.9469985961914 196.861328125 73.29638671875 196.59039306640625 71.47520446777344 C 223.22998046875 66.94695281982422 206.4197540283203 80.0845947265625 262.0234680175781 79.61222839355469 C 246.6163330078125 60.94019317626953 168.4756317138672 64.65294647216797 161.52020263671875 69.40767669677734" stroke-width="2.0" fill="rgb(230, -50, 489)" opacity="0.17652115"/>
    <path d="M 34.513999938964844 134.72195434570312 C -31.50432586669922 108.5650863647461 41.71645736694336 174.0218048095703 10.639461517333984 153.7266845703125 C -7.796904563903809 165.41293334960938 -30.045557022094727 170.7930908203125 46.20469284057617 163.04124450683594 C 45.70670700073242 148.30984497070312 27.946083068847656 131.2014923095703 34.513999938964844 134.72195434570312" stroke-width="2.0" fill="rgb(282, 54, -137)" opacity="0.35378924"/>
    <path d="M 177.55667114257812 105.99712371826172 C 181.94981384277344 94.99281311035156 178.08956909179688 123.03864288330078 147.0874481201172 86.15444946289062 C 179.81703186035156 133.55453491210938 141.70948791503906 104.843017578125 172.16404724121094 101.7348861694336 C 124.2786865234375 77.3113784790039 156.5091094970703 99.98550415039062 193.88357543945312 109.25448608398438 C 123.7543716430664 66.46653747558594 136.2474822998047 129.2369842529297 177.55667114257812 105.99712371826172" stroke-width="2.0" fill="rgb(57, 10, -43)" opacity="0.597731"/>
    <path d="M 81.44273376464844 55.7376594543457 C 68.7584228515625 40.592105865478516 73.55327606201172 32.75166320800781 57.22111511230469 42.75730895996094 C 89.18962860107422 60.662208557128906 75.94586181640625 22.913639068603516 35.0943489074707 40.13740539550781 C 0.9694637060165405 77.64666748046875 97.19302368164062 109.983154296875 112.5361099243164 69.412841796875 C 99.0832290649414 57.55412292480469 75.25508117675781 46.754520416259766 45.957332611083984 25.534881591796875 C 84.90117645263672 -3.951653480529785 81.31238555908203 52.2477912902832 81.44273376464844 55.7376594543457" stroke-width="2.0" fill="rgb(783, 616, 500)" opacity="0.7405965"/>
    <path d="M 40.561527252197266 130.33035278320312 C 17.83212661743164 77.57559967041016 8.251215934753418 44.385520935058594 -16.506715774536133 63.813350677490234 C -26.41645050048828 85.07776641845703 -43.29339599609375 66.84400177001953 -13.983219146728516 100.07769012451172 C -4.914639472961426 110.0094985961914 -9.781290054321289 107.90872955322266 -11.442852973937988 106.56084442138672 C -12.19404125213623 105.20149993896484 -25.71141242980957 125.26884460449219 -17.909883499145508 122.65316009521484 C -17.849246978759766 144.86764526367188 30.013580322265625 187.5967254638672 40.561527252197266 130.33035278320312" stroke-width="2.0" fill="rgb(786, 705, 545)" opacity="0.4959359"/>
    <path d="M 150.08006286621094 45.11682891845703 C 169.41912841796875 54.52922821044922 178.02371215820312 35.91735076904297 181.04348754882812 10.480704307556152 C 143.32278442382812 -26.908246994018555 150.21902465820312 -24.816574096679688 120.66655731201172 57.27899169921875 C 177.48512268066406 54.39201736450195 188.3497314453125 45.5528564453125 181.4832763671875 59.246246337890625 C 165.0260009765625 86.27845764160156 154.97222900390625 65.46734619140625 150.08006286621094 45.11682891845703" stroke-width="2.0" fill="rgb(589, 149, 94)" opacity="0.014635151"/>
    <path d="M 84.71170043945312 84.12566375732422 C 35.5266227722168 107.06568908691406 64.87763977050781 99.03701782226562 124.1131591796875 96.39293670654297 C 45.48722457885742 52.342552185058594 111.65127563476562 59.04690170288086 93.87865447998047 62.125179290771484 C 73.7027359008789 97.9447250366211 99.59598541259766 76.18885803222656 106.34500885009766 69.15703582763672 C 80.4292221069336 79.70548248291016 117.60427856445312 100.00830841064453 101.17619323730469 64.59782409667969 C 51.43622970581055 14.232678413391113 65.82861328125 35.55751419067383 84.71170043945312 84.12566375732422" stroke-width="2.0" fill="rgb(512, 213, 30)" opacity="0.38212073"/>
    <path d="M 86.59264373779297 99.59061431884766 C 120.09611511230469 87.81326293945312 104.52039337158203 61.0188102722168 102.46498107910156 85.38280487060547 C 72.82423400878906 48.764034271240234 124.93853759765625 63.35271453857422 105.95869445800781 80.19940185546875 C 58.73153305053711 74.22429656982422 115.87138366699219 88.90422058105469 76.119873046875 87.44619750976562 C 53.113037109375 82.06001281738281 48.77101516723633 87.11087036132812 86.59264373779297 99.59061431884766" stroke-width="2.0" fill="rgb(-84, -277, -208)" opacity="0.4865233"/>
    <path d="M 107.77327728271484 231.98570251464844 C 88.49913024902344 194.9881134033203 89.89048767089844 213.03121948242188 96.39054870605469 241.1625213623047 C 92.19274139404297 223.1229248046875 99.91134643554688 227.0541534423828 96.70455169677734 234.12608337402344 C 91.1153793334961 227.29820251464844 93.10895538330078 230.83407592773438 107.77327728271484 231.98570251464844" stroke-width="2.0" fill="rgb(-122, -141, -163)" opacity="0.98515207"/>
    <path d="M 126.61434173583984 44.64277267456055 C 138.13087463378906 36.263065338134766 65.95861053466797 16.929840087890625 63.06422424316406 -9.016958236694336 C 115.81954956054688 47.89414978027344 109.88754272460938 -1.4124996662139893 108.3576431274414 42.3623161315918 C 146.39486694335938 21.340892791748047 115.71157836914062 27.280031204223633 78.97032928466797 42.31032943725586 C 106.1300048828125 20.72429084777832 97.9392318725586 39.85321044921875 126.61434173583984 44.64277267456055" stroke-width="2.0" fill="rgb(1087, -16, 58)" opacity="0.062441677"/>
    <path d="M 177.89044189453125 41.09880065917969 C 172.93531799316406 72.60627746582031 189.13241577148438 56.20315170288086 221.02603149414062 76.08145904541016 C 213.68634033203125 44.84782409667969 215.54531860351562 39.36886978149414 217.78721618652344 2.556666612625122 C 178.2546844482422 8.74332046508789 199.51077270507812 5.623988151550293 177.89044189453125 41.09880065917969" stroke-width="2.0" fill="rgb(404, 219, 211)" opacity="0.051066935"/>
    <path d="M 42.82071304321289 84.51212310791016 C 20.219663619995117 123.83244323730469 22.421998977661133 106.99935150146484 6.913549900054932 79.86763763427734 C -2.829789400100708 65.36316680908203 23.211179733276367 119.07929229736328 1.400610089302063 102.39957427978516 C -25.459230422973633 30.84171485900879 -8.636727333068848 87.88192749023438 42.82071304321289 84.51212310791016" stroke-width="2.0" fill="rgb(45, -97, -343)" opacity="0.3831538"/>
    <path d="M 97.30146026611328 212.2812957763672 C 97.3209228515625 184.30621337890625 115.38929748535156 180.5552520751953 35.22346115112305 199.102294921875 C 85.67391967773438 230.69309997558594 92.88753509521484 230.67138671875 31.12293815612793 179.7574462890625 C 72.6240463256836 248.12254333496094 24.33948516845703 203.7579345703125 97.30146026611328 212.2812957763672" stroke-width="2.0" fill="rgb(-78, 43, -266)" opacity="1.053514"/>
    <path d="M 61.78325653076172 192.76065063476562 C 71.2277603149414 163.71041870117188 70.83148956298828 219.1007080078125 97.24710845947266 197.5835723876953 C 73.00909423828125 177.47373962402344 119.05839538574219 169.2825927734375 114.31452941894531 200.4477996826172 C 75.95919799804688 154.066650390625 127.59725952148438 176.5045623779297 88.66703033447266 180.41970825195312 C 73.96800231933594 206.2501678466797 79.31008911132812 229.75376892089844 117.88495635986328 186.90756225585938 C 96.13819122314453 184.2920684814453 103.66800689697266 200.08383178710938 61.78325653076172 192.76065063476562" stroke-width="2.0" fill="rgb(-209, -409, -532)" opacity="0.36500725"/>
    <path d="M 166.74636840820312 68.32150268554688 C 184.45858764648438 87.76394653320312 161.94174194335938 91.74112701416016 140.13638305664062 59.634464263916016 C 163.4920196533203 89.92094421386719 145.1497039794922 63.05290603637695 132.88169860839844 92.33177947998047 C 149.2383270263672 68.8721923828125 178.9752197265625 58.76002883911133 165.3937530517578 54.88256072998047 C 159.3731689453125 55.7557487487793 157.2478790283203 90.58042907714844 166.74636840820312 68.32150268554688" stroke-width="2.0" fill="rgb(116, 181, 276)" opacity="0.29936084"/>
    <path d="M 160.0887451171875 75.08098602294922 C 194.5276641845703 102.39546203613281 150.77833557128906 115.40238189697266 157.68492126464844 78.06095123291016 C 167.89292907714844 114.87035369873047 177.0858917236328 113.71786499023438 134.8861541748047 93.68875122070312 C 165.7524871826172 125.14986419677734 218.0106201171875 115.52894592285156 150.774169921875 86.52206420898438 C 184.9408416748047 141.2156219482422 156.4200439453125 113.2435073852539 160.0887451171875 75.08098602294922" stroke-width="2.0" fill="rgb(-196, -247, -250)" opacity="0.54401994"/>
    <path d="M 60.93042755126953 110.77444458007812 C 38.130550384521484 136.37303161621094 84.98194122314453 81.51802825927734 36.08491897583008 117.28427124023438 C 30.509336471557617 149.01171875 36.35199737548828 182.20809936523438 9.481136322021484 136.26519775390625 C 69.45338439941406 189.97006225585938 30.20216941833496 156.22901916503906 60.93042755126953 110.77444458007812" stroke-width="2.0" fill="rgb(438, 361, 321)" opacity="0.56850785"/>
    <path d="M 42.59188461303711 136.3176727294922 C 51.970123291015625 166.6327362060547 41.02425003051758 157.04782104492188 25.54851722717285 142.4370574951172 C 45.554283142089844 126.94445037841797 54.72578811645508 191.13491821289062 30.60563087463379 151.61376953125 C -12.750718116760254 158.843017578125 9.747941970825195 152.23532104492188 59.821861267089844 177.82005310058594 C 63.904029846191406 144.1586456298828 46.18646240234375 187.94082641601562 42.13197326660156 135.85150146484375 C 39.175601959228516 159.3170166015625 39.105857849121094 172.19070434570312 42.59188461303711 136.3176727294922" stroke-width="2.0" fill="rgb(233, 64, -70)" opacity="0.21981466"/>
    <path d="M 130.71705627441406 167.4839630126953 C 134.09486389160156 212.8083953857422 138.1488037109375 185.9688262939453 121.15779113769531 165.066650390625 C 138.55538940429688 174.68408203125 135.8701171875 128.5374755859375 129.57452392578125 171.79588317871094 C 174.00416564941406 136.1426239013672 143.311279296875 174.11129760742188 123.19506072998047 156.09007263183594 C 123.3862075805664 187.06149291992188 106.50769805908203 145.38145446777344 130.71705627441406 167.4839630126953" stroke-width="2.0" fill="rgb(-50, -80, -220)" opacity="0.47042632"/>
    <path d="M 138.71644592285156 56.59709167480469 C 156.69493103027344 58.49385452270508 142.3949432373047 26.643619537353516 144.2709197998047 51.58992004394531 C 107.71858215332031 50.84804153442383 152.33612060546875 17.22134017944336 108.34671020507812 21.8322811126709 C 97.50102996826172 78.63946533203125 124.31288146972656 110.08223724365234 122.22685241699219 77.248291015625 C 138.4430389404297 73.64862060546875 136.8944091796875 86.7383041381836 138.71644592285156 56.59709167480469" stroke-width="2.0" fill="rgb(377, 266, 97)" opacity="0.014002759"/>
    <path d="M 104.1735610961914 88.91748809814453 C 82.15870666503906 84.74826049804688 86.83106994628906 94.6882553100586 98.50692749023438 81.916259765625 C 72.97183227539062 80.20764923095703 126.64825439453125 86.00584411621094 92.26557922363281 90.3567886352539 C 128.5976104736328 51.76497268676758 96.35272979736328 75.20306396484375 92.95195770263672 68.83133697509766 C 115.08345794677734 100.43257904052734 58.53963851928711 72.37405395507812 104.1735610961914 88.91748809814453" stroke-width="2.0" fill="rgb(-96, -273, -215)" opacity="1.533848"/>
    <path d="M 146.06387329101562 158.2235565185547 C 203.9536590576172 91.0888671875 183.44261169433594 63.55272674560547 143.84954833984375 82.71517181396484 C 188.9146270751953 110.54158782958984 139.0535125732422 73.08293914794922 138.04832458496094 150.3318328857422 C 149.45570373535156 137.80702209472656 146.03973388671875 133.23345947265625 145.52049255371094 153.81773376464844 C 183.03427124023438 161.093505859375 155.70956420898438 175.1715850830078 146.06387329101562 158.2235565185547" stroke-width="2.0" fill="rgb(406, 441, 424)" opacity="0.31563938"/>
    <path d="M 195.0824737548828 123.67822265625 C 163.39634704589844 47.15965270996094 154.33615112304688 130.68699645996094 186.07542419433594 105.5791015625 C 198.57777404785156 71.99083709716797 176.2596435546875 99.13943481445312 173.49436950683594 90.628662109375 C 170.08078002929688 125.21971893310547 136.6261444091797 142.79234313964844 195.0824737548828 123.67822265625" stroke-width="2.0" fill="rgb(-122, -199, -215)" opacity="0.309456"/>
    <path d="M 201.77598571777344 91.5120620727539 C 167.50523376464844 73.14385986328125 128.71839904785156 78.18647003173828 132.21315002441406 107.93201446533203 C 70.41145324707031 62.25946807861328 152.4946746826172 93.65055847167969 121.79684448242188 69.95870971679688 C 188.27755737304688 68.94355773925781 155.15159606933594 60.88444519042969 201.77598571777344 91.5120620727539" stroke-width="2.0" fill="rgb(150, 252, 11)" opacity="0.8924436"/>
    <path d="M 35.61615753173828 4.534702301025391 C -1.0422372817993164 21.963777542114258 -0.0821189433336258 2.7381742000579834 -36.3568115234375 -9.742280960083008 C -18.599647521972656 14.458272933959961 -20.790252685546875 16.608274459838867 -34.24073791503906 78.5555191040039 C -1.6130322217941284 65.79109191894531 -14.19530963897705 15.820425987243652 35.61615753173828 4.534702301025391" stroke-width="2.0" fill="rgb(-49, -108, -106)" opacity="1.4077327"/>
    <path d="M 203.3069610595703 190.91099548339844 C 262.8068542480469 167.8036346435547 239.72225952148438 171.6923370361328 230.4005889892578 228.37619018554688 C 212.38255310058594 227.2193145751953 209.80264282226562 230.66964721679688 194.62066650390625 238.44851684570312 C 201.28688049316406 250.75120544433594 201.8583984375 223.74110412597656 164.99493408203125 212.82627868652344 C 152.7659454345703 174.52224731445312 216.42523193359375 196.39414978027344 203.3069610595703 190.91099548339844" stroke-width="2.0" fill="rgb(-78, 136, -414)" opacity="0.8698512"/>
    <path d="M 174.7075653076172 187.46766662597656 C 134.20574951171875 206.3143768310547 113.09613037109375 161.68670654296875 100.99537658691406 221.97006225585938 C 277.52288818359375 222.9931182861328 324.8299865722656 218.624267578125 196.32296752929688 228.8042755126953 C 172.36521911621094 237.04310607910156 159.3277130126953 232.5693359375 177.5746612548828 253.0330810546875 C 189.2627716064453 189.95712280273438 175.50802612304688 242.11534118652344 174.7075653076172 187.46766662597656" stroke-width="2.0" fill="rgb(-74, 54, -327)" opacity="1.0833522"/>
    <path d="M 75.95911407470703 195.40237426757812 C 122.88212585449219 233.3616943359375 120.45365142822266 205.05162048339844 135.83990478515625 127.68355560302734 C 149.6770477294922 269.5732116699219 209.740478515625 184.4214630126953 130.30670166015625 185.19381713867188 C 129.18711853027344 238.27757263183594 142.02493286132812 181.176513671875 75.95911407470703 195.40237426757812" stroke-width="2.0" fill="rgb(-136, 57, -429)" opacity="0.6689546"/>
    <path d="M 32.270233154296875 83.61296081542969 C 55.642887115478516 106.6729736328125 25.498836517333984 62.178348541259766 21.738861083984375 103.91064453125 C 28.843908309936523 71.8421630859375 32.82879638671875 95.84880828857422 -12.566609382629395 68.1908950805664 C 5.71858024597168 79.20516967773438 16.087167739868164 118.94671630859375 32.270233154296875 83.61296081542969" stroke-width="2.0" fill="rgb(21, -65, -215)" opacity="1.5236245"/>
    <path d="M 163.81593322753906 139.49403381347656 C 163.8191375732422 156.60009765625 194.05728149414062 105.25364685058594 164.7274932861328 197.04782104492188 C 160.99783325195312 171.54696655273438 195.5475311279297 184.0231475830078 150.0137939453125 174.6433563232422 C 162.6847686767578 181.081298828125 180.75921630859375 129.43331909179688 163.81593322753906 139.49403381347656" stroke-width="2.0" fill="rgb(141, 25, -107)" opacity="0.61137885"/>
    <path d="M 119.42529296875 159.80838012695312 C 155.0094757080078 117.9019775390625 144.36793518066406 144.8909912109375 122.96504974365234 136.2289581298828 C 134.01834106445312 150.3601531982422 146.2604522705078 116.20002746582031 131.8695831298828 136.83074951171875 C 150.8728485107422 170.1038360595703 103.95280456542969 149.93121337890625 119.42529296875 159.80838012695312" stroke-width="2.0" fill="rgb(-59, 77, -352)" opacity="1.0015429"/>
    <path d="M 86.18822479248047 153.08990478515625 C 114.82239532470703 150.05528259277344 75.82477569580078 137.1902313232422 101.9668960571289 144.1334991455078 C 94.22412872314453 138.8107452392578 87.6270523071289 107.15554809570312 106.05747985839844 192.28912353515625 C 53.14470291137695 174.13487243652344 58.72529983520508 154.11866760253906 75.48782348632812 152.13575744628906 C 138.6724395751953 148.9409637451172 82.31148529052734 99.5141372680664 94.38394927978516 108.55059814453125 C 84.0730972290039 156.1859893798828 110.90408325195312 143.55807495117188 86.18822479248047 153.08990478515625" stroke-width="2.0" fill="rgb(563, 503, 460)" opacity="0.33287147"/>
    <path d="M 128.64486694335938 70.92121124267578 C 155.32711791992188 71.46113586425781 150.0807647705078 74.9923324584961 152.9822235107422 80.41133880615234 C 143.8033905029297 76.42182922363281 156.21694946289062 61.487770080566406 179.23289489746094 99.40559387207031 C 164.348876953125 114.7192611694336 171.30075073242188 82.8952865600586 140.06130981445312 60.16835403442383 C 158.008056640625 109.21898651123047 219.84849548339844 73.0506820678711 111.80789947509766 76.19740295410156 C 153.2456817626953 61.803897857666016 109.21761322021484 50.48760986328125 128.64486694335938 70.92121124267578" stroke-width="2.0" fill="rgb(336, 172, 113)" opacity="0.39906764"/>
    <path d="M 114.82064819335938 222.5177764892578 C 85.1493911743164 217.7108154296875 21.828657150268555 227.42701721191406 44.34565353393555 209.65257263183594 C 55.40898513793945 213.79000854492188 84.79936981201172 206.60275268554688 67.45170593261719 201.3910675048828 C 85.32381439208984 174.43629455566406 67.12264251708984 175.8602752685547 114.82064819335938 222.5177764892578" stroke-width="2.0" fill="rgb(-90, 71, -346)" opacity="0.7093085"/>
    <path d="M 147.20111083984375 70.60314178466797 C 108.29721069335938 89.44930267333984 102.52729797363281 46.64531707763672 119.4521255493164 55.666255950927734 C 97.29163360595703 51.865257263183594 89.8724136352539 78.64934539794922 166.73764038085938 56.42026138305664 C 67.13529205322266 70.77837371826172 140.00762939453125 49.64122772216797 95.0313491821289 50.259521484375 C 110.96375274658203 84.38419342041016 156.00506591796875 60.6894645690918 147.20111083984375 70.60314178466797" stroke-width="2.0" fill="rgb(236, 155, 66)" opacity="0.12823038"/>
    <path d="M -28.005762100219727 141.59182739257812 C -2.7268242835998535 167.05661010742188 21.374652862548828 153.9746551513672 -10.178925514221191 150.13951110839844 C 36.07659149169922 138.25242614746094 4.685069561004639 195.16123962402344 -7.059558868408203 148.0083465576172 C 37.64064025878906 185.23617553710938 -11.24363899230957 221.45591735839844 -28.005762100219727 141.59182739257812" stroke-width="2.0" fill="rgb(62, 16, -10)" opacity="0.30435172"/>
    <path d="M 83.0155029296875 186.7802734375 C 13.66338062286377 188.72947692871094 35.628780364990234 205.37246704101562 18.912145614624023 167.5946502685547 C 80.01902770996094 173.0439453125 57.48307800292969 164.9316864013672 47.115535736083984 164.81796264648438 C 85.44522094726562 178.34695434570312 32.9954948425293 167.12120056152344 48.59909439086914 193.6475067138672 C 37.17677688598633 153.99655151367188 87.04369354248047 192.59844970703125 43.06167984008789 182.63377380371094 C 29.932130813598633 160.880615234375 -13.799131393432617 161.54046630859375 83.0155029296875 186.7802734375" stroke-width="2.0" fill="rgb(273, 58, 126)" opacity="0.4051938"/>
    <path d="M 49.54011535644531 93.16016387939453 C 72.80609130859375 73.12767028808594 79.46926879882812 37.028079986572266 37.85456085205078 43.05152130126953 C 44.30234146118164 50.381446838378906 32.300655364990234 85.9456558227539 29.530736923217773 111.0448226928711 C 68.49822998046875 63.40502166748047 76.9334945678711 111.74781799316406 50.970916748046875 71.3814468383789 C 67.99056243896484 56.47233963012695 74.1019515991211 57.28970718383789 109.21891784667969 81.03190612792969 C 61.07749557495117 106.58164978027344 73.10409545898438 68.80740356445312 49.54011535644531 93.16016387939453" stroke-width="2.0" fill="rgb(685, 614, 520)" opacity="0.6143036"/>
    <path d="M 199.60125732421875 161.36961364746094 C 211.85157775878906 160.3450927734375 219.97335815429688 154.39842224121094 204.84725952148438 141.0233612060547 C 231.415283203125 189.6929473876953 195.13307189941406 203.79136657714844 233.87933349609375 186.2578582763672 C 244.75717163085938 160.41700744628906 229.91307067871094 163.5551300048828 226.752197265625 153.6608428955078 C 232.93482971191406 164.08595275878906 239.7571258544922 163.6283721923828 269.4080505371094 158.94497680664062 C 251.02548217773438 145.03578186035156 234.590087890625 160.14859008789062 199.60125732421875 161.36961364746094" stroke-width="2.0" fill="rgb(-123, 146, -412)" opacity="1.0394409"/>
    <path d="M 100.4397964477539 68.59032440185547 C 88.54539489746094 63.393924713134766 51.67508316040039 -13.061930656433105 73.87688446044922 46.33161926269531 C 49.78915786743164 45.59065246582031 54.56565856933594 71.22247314453125 77.95465850830078 39.38129806518555 C 65.33599853515625 59.8685302734375 87.33890533447266 29.53753662109375 80.37781524658203 32.031070709228516 C 85.3381118774414 39.892333984375 55.6035270690918 44.495079040527344 98.5064468383789 29.49687385559082 C 63.25379943847656 44.280155181884766 53.13338088989258 54.74546432495117 100.4397964477539 68.59032440185547" stroke-width="2.0" fill="rgb(646, 359, 208)" opacity="0.42825678"/>
    <path d="M 67.10742950439453 23.192214965820312 C 9.376357078552246 66.98656463623047 -7.874517917633057 39.69742202758789 20.04624366760254 32.998504638671875 C 31.596967697143555 25.10107421875 49.19282150268555 10.199233055114746 39.388587951660156 11.999488830566406 C -17.87613296508789 49.641876220703125 19.831491470336914 -11.162880897521973 67.10742950439453 23.192214965820312" stroke-width="2.0" fill="rgb(591, 348, 190)" opacity="0.6572619"/>
    <path d="M 39.23842239379883 158.1878662109375 C 43.48015213012695 133.7783966064453 -6.252278804779053 147.38780212402344 7.468687057495117 155.02670288085938 C -15.81020736694336 197.40338134765625 47.32595443725586 175.11624145507812 82.45326232910156 191.08982849121094 C 85.7304458618164 185.15896606445312 12.880298614501953 147.19058227539062 31.726943969726562 140.04428100585938 C -17.59390640258789 153.37661743164062 16.472354888916016 168.89247131347656 39.23842239379883 158.1878662109375" stroke-width="2.0" fill="rgb(557, 471, 388)" opacity="0.58807635"/>
    <path d="M 126.20023345947266 217.8060760498047 C 104.95972442626953 214.35768127441406 136.87095642089844 201.56240844726562 142.11184692382812 199.74420166015625 C 126.18334197998047 255.2316131591797 182.51739501953125 132.30162048339844 160.99996948242188 217.3681640625 C 145.71112060546875 194.6844482421875 161.1074981689453 141.1199188232422 126.20023345947266 217.8060760498047" stroke-width="2.0" fill="rgb(-118, -68, -348)" opacity="0.37639752"/>
    <path d="M 66.34429168701172 137.96908569335938 C 110.98432159423828 122.27555847167969 8.844169616699219 173.68145751953125 87.96633911132812 146.28549194335938 C 50.95254898071289 160.7696990966797 50.92863464355469 162.9171905517578 79.45130920410156 146.95010375976562 C 58.48641586303711 147.07254028320312 43.33891677856445 186.85838317871094 66.34429168701172 137.96908569335938" stroke-width="2.0" fill="rgb(256, 92, -56)" opacity="0.15812261"/>
    <path d="M -12.136975288391113 38.50398254394531 C 10.119668006896973 19.376846313476562 22.988866806030273 -15.45740032196045 72.19978332519531 24.200410842895508 C 37.16049575805664 53.10147476196289 31.457786560058594 75.70891571044922 29.881107330322266 48.43977737426758 C 30.24993896484375 36.698062896728516 22.692947387695312 44.242584228515625 26.569936752319336 31.269380569458008 C 27.31793212890625 50.7811164855957 31.305585861206055 18.409608840942383 31.889137268066406 43.62848663330078 C 25.541040420532227 67.21198272705078 73.64813232421875 76.78611755371094 -12.136975288391113 38.50398254394531" stroke-width="2.0" fill="rgb(779, 607, 480)" opacity="0.8332845"/>
    <path d="M 125.20511627197266 164.60166931152344 C 91.96575927734375 206.94760131835938 116.11209106445312 139.7445526123047 89.2879409790039 150.54335021972656 C 57.76704788208008 177.69126892089844 136.46876525878906 214.812744140625 111.17529296875 178.3696746826172 C 109.52799224853516 128.99481201171875 77.01565551757812 139.9932098388672 90.51058959960938 117.15187072753906 C 109.33622741699219 126.73505401611328 75.95516204833984 176.8165283203125 125.20511627197266 164.60166931152344" stroke-width="2.0" fill="rgb(84, -124, -298)" opacity="0.15750094"/>
    <path d="M 146.77792358398438 51.434207916259766 C 142.87490844726562 60.874969482421875 149.7823028564453 61.926841735839844 162.07528686523438 44.81934356689453 C 169.7862091064453 27.551319122314453 124.09002685546875 42.36996078491211 161.88223266601562 60.46063232421875 C 120.25579071044922 68.92825317382812 127.59557342529297 59.96059036254883 125.44464111328125 70.385986328125 C 135.7416229248047 68.1711196899414 179.6204833984375 70.69002532958984 146.77792358398438 51.434207916259766" stroke-width="2.0" fill="rgb(307, 368, 190)" opacity="0.14493814"/>
    <path d="M 148.939697265625 83.67403411865234 C 130.63992309570312 43.58597183227539 142.3607635498047 63.88678741455078 169.99549865722656 52.298667907714844 C 172.72738647460938 75.60775756835938 143.67715454101562 63.475074768066406 211.2767333984375 69.47976684570312 C 187.0059356689453 79.32637786865234 158.20223999023438 72.30101776123047 169.48789978027344 62.10688400268555 C 120.91262817382812 58.42155075073242 154.55685424804688 68.3693618774414 177.96713256835938 77.43730926513672 C 175.8497772216797 63.050697326660156 135.3036651611328 69.69852447509766 148.939697265625 83.67403411865234" stroke-width="2.0" fill="rgb(289, 143, 32)" opacity="0.121713065"/>
    <path d="M -5.776426315307617 90.97529602050781 C 23.618276596069336 130.50132751464844 37.50166702270508 51.51826477050781 26.217844009399414 102.10343170166016 C -21.50951385498047 59.30674362182617 13.659797668457031 132.94044494628906 48.65526580810547 103.74492645263672 C 28.821168899536133 109.07526397705078 3.51071834564209 100.55729675292969 -5.776426315307617 90.97529602050781" stroke-width="2.0" fill="rgb(112, 9, -218)" opacity="0.2924015"/>
    <path d="M 200.54037475585938 159.09976196289062 C 251.0816192626953 144.97821044921875 208.82705688476562 134.84246826171875 223.41448974609375 192.32847595214844 C 200.52554321289062 159.38992309570312 187.2914581298828 112.67410278320312 211.0817413330078 193.28138732910156 C 200.1058807373047 192.73715209960938 257.248291015625 171.0047607421875 213.93972778320312 177.53265380859375 C 171.1865234375 170.2859649658203 272.4127502441406 199.23609924316406 200.54037475585938 159.09976196289062" stroke-width="2.0" fill="rgb(-124, -226, -113)" opacity="0.36090115"/>
    <path d="M 149.23561096191406 44.61216735839844 C 133.2978057861328 91.98440551757812 116.05289459228516 86.11780548095703 224.54287719726562 77.89117431640625 C 62.691497802734375 54.19532012939453 201.71945190429688 91.33558654785156 169.8018341064453 76.27688598632812 C 166.532470703125 35.555198669433594 161.5566864013672 36.45084762573242 149.23561096191406 44.61216735839844" stroke-width="2.0" fill="rgb(305, 311, 155)" opacity="0.1313556"/>
    <path d="M -27.223318099975586 183.13014221191406 C 59.681785583496094 187.42935180664062 46.26905059814453 202.75843811035156 -11.278697967529297 193.51138305664062 C -20.697114944458008 205.75921630859375 38.952396392822266 204.32623291015625 42.177371978759766 208.38784790039062 C -25.363195419311523 227.74537658691406 53.49692153930664 175.5404510498047 18.37569808959961 220.71954345703125 C 5.59207010269165 162.23098754882812 -4.350169658660889 182.03936767578125 -3.6333653926849365 205.2730712890625 C -5.893789768218994 169.13980102539062 22.869483947753906 181.74127197265625 -27.223318099975586 183.13014221191406" stroke-width="2.0" fill="rgb(-119, -20, -353)" opacity="1.597935"/>
    <path d="M 14.747974395751953 29.079435348510742 C -11.243069648742676 32.79362106323242 17.261783599853516 30.200061798095703 15.961631774902344 54.827083587646484 C -38.1355094909668 29.207530975341797 -3.593449354171753 78.64457702636719 -56.248722076416016 97.14370727539062 C -12.385120391845703 30.062185287475586 -16.371845245361328 31.47071075439453 -19.657821655273438 37.35535430908203 C -23.446077346801758 45.739627838134766 -18.509246826171875 44.90290069580078 -16.175556182861328 104.85062408447266 C 3.8250489234924316 77.25810241699219 -12.087915420532227 47.571319580078125 14.747974395751953 29.079435348510742" stroke-width="2.0" fill="rgb(451, 49, -217)" opacity="0.13692679"/>
    <path d="M 170.06033325195312 34.20109176635742 C 178.03419494628906 29.39423942565918 169.46163940429688 33.221710205078125 158.0847930908203 31.772085189819336 C 175.3782501220703 39.119667053222656 168.4216766357422 59.57183074951172 164.50717163085938 34.08715057373047 C 168.94581604003906 30.928390502929688 159.49496459960938 38.80968475341797 159.7075958251953 25.18180274963379 C 156.850341796875 41.458553314208984 175.8277130126953 24.37543487548828 176.79348754882812 35.074337005615234 C 175.52215576171875 29.137210845947266 174.232666015625 30.203508377075195 170.06033325195312 34.20109176635742" stroke-width="2.0" fill="rgb(288, 166, 409)" opacity="0.13413204"/>
    <path d="M 55.916934967041016 228.98085021972656 C 46.37393569946289 229.9032745361328 49.50539016723633 233.1482391357422 54.16204071044922 233.40687561035156 C 63.690250396728516 231.0352783203125 63.19083786010742 234.68173217773438 68.77682495117188 237.4624481201172 C 70.94654846191406 242.11766052246094 66.84745788574219 238.56495666503906 70.08150482177734 243.08287048339844 C 72.09798431396484 244.655029296875 77.39836883544922 240.44839477539062 74.55917358398438 238.15231323242188 C 75.59373474121094 236.45516967773438 73.67984771728516 230.71646118164062 55.916934967041016 228.98085021972656" stroke-width="2.0" fill="rgb(224, 17, 253)" opacity="0.76971775"/>
    <path d="M -2.6925013065338135 176.99095153808594 C 10.776078224182129 214.92733764648438 -0.29846125841140747 213.16212463378906 11.851900100708008 181.09109497070312 C 38.669742584228516 223.03941345214844 -3.279486656188965 218.83982849121094 -28.606237411499023 210.96299743652344 C 17.210773468017578 238.06224060058594 21.944072723388672 238.61154174804688 25.55804443359375 232.86380004882812 C 28.50827980041504 229.00572204589844 25.038097381591797 228.5262451171875 -16.01099395751953 222.8357696533203 C -25.792274475097656 201.97210693359375 -30.6925048828125 206.9624481201172 -2.6925013065338135 176.99095153808594" stroke-width="2.0" fill="rgb(-123, -6, -362)" opacity="0.96321994"/>
    <path d="M 202.9720458984375 1.993823528289795 C 191.7891845703125 28.874853134155273 188.44415283203125 34.622371673583984 152.9559326171875 32.806968688964844 C 156.03591918945312 1.9445500373840332 144.71856689453125 14.055731773376465 157.5746307373047 12.012689590454102 C 160.8689422607422 17.136547088623047 167.7341766357422 5.0557074546813965 202.9720458984375 1.993823528289795" stroke-width="2.0" fill="rgb(312, 237, 256)" opacity="0.018493515"/>
    <path d="M 40.05693435668945 200.54237365722656 C 54.40511703491211 250.64132690429688 1.9647586345672607 164.5513458251953 28.190338134765625 180.89031982421875 C 46.652408599853516 233.77481079101562 -1.8648173809051514 222.66400146484375 79.46229553222656 197.86936950683594 C 63.97569274902344 249.09825134277344 76.37749481201172 153.5015411376953 46.153709411621094 192.94076538085938 C 36.095115661621094 171.18283081054688 8.048103332519531 211.79061889648438 40.05693435668945 200.54237365722656" stroke-width="2.0" fill="rgb(-117, 70, -407)" opacity="0.5390437"/>
    <path d="M 112.63245391845703 203.67062377929688 C 81.51575469970703 225.4638214111328 128.29017639160156 152.92501831054688 112.13572692871094 216.27328491210938 C 95.41752624511719 165.26170349121094 87.34937286376953 183.58578491210938 136.459228515625 217.16470336914062 C 114.4498062133789 224.25588989257812 62.42305374145508 224.8291015625 87.65211486816406 213.06581115722656 C 86.68207550048828 194.8601837158203 97.64517211914062 185.42762756347656 112.63245391845703 203.67062377929688" stroke-width="2.0" fill="rgb(-77, 94, -356)" opacity="0.57558095"/>
    <path d="M 111.18038940429688 156.2693328857422 C 193.70492553710938 107.09103393554688 132.80433654785156 123.34276580810547 135.41627502441406 78.1038818359375 C 116.1759033203125 64.458984375 129.3736114501953 78.41651916503906 127.5315933227539 65.19125366210938 C 101.56846618652344 76.11402893066406 115.43148040771484 40.982669830322266 110.00991821289062 77.61495208740234 C 57.284793853759766 141.208984375 90.69432067871094 60.732398986816406 111.18038940429688 156.2693328857422" stroke-width="2.0" fill="rgb(161, 251, -28)" opacity="0.73533523"/>
  </g>
</svg>
